<svg width="615" height="104" viewBox="0 0 615 104" fill="none" xmlns="http://www.w3.org/2000/svg">
<path d="M50.5 85.1C52.1667 84.5 54.0667 83.6 56.2 82.4C58.3333 81.2667 60.4667 79.9667 62.6 78.5C64.8 77.0333 66.6333 75.6 68.1 74.2C69.5667 72.8 71.1 71.1667 72.7 69.3C75.4333 66.1 77.3333 62.9 78.4 59.7C72.9333 59.7 67.8333 60.3333 63.1 61.6C58.3667 62.8667 53.8 64.8 49.4 67.4C47.2667 68.6667 45.3333 69.9667 43.6 71.3C41.8667 72.6333 40.4 73.9667 39.2 75.3C36.7333 78.1667 35.5 80.6333 35.5 82.7C35.5 84.1 36 85.2 37 86C38 86.8 39.4333 87.2 41.3 87.2C44.1667 87.2 47.2333 86.5 50.5 85.1ZM43.7 3.4C43.0333 2.86666 41.8667 2.43333 40.2 2.1C38.5333 1.76666 36.7 1.6 34.7 1.6C32.8333 1.6 31.0333 1.8 29.3 2.2C21.2333 4.66667 14.6 8.43333 9.4 13.5C4.26667 18.5667 1.7 23.6 1.7 28.6C1.7 31 2.33333 32.8667 3.6 34.2C4.93333 35.5333 6.7 36.2 8.9 36.2C11.6333 36.2 14.6333 35.3 17.9 33.5C21.1667 31.6333 23.9 29.2667 26.1 26.4C28.1 23.9333 29.7333 21.1333 31 18C32.2667 14.8 32.9 12 32.9 9.6C32.9 7.93333 32.6333 6.6 32.1 5.6C31.6333 4.6 30.9 3.6 29.9 2.6C30.8333 2.13333 31.5333 2 32 2.2C33.4667 3.8 34.4667 5.5 35 7.3C35.5333 9.03333 35.8 10.6667 35.8 12.2C35.8 15.7333 35.0333 19.1667 33.5 22.5C31.9667 25.8333 29.7667 28.9 26.9 31.7C24.5 34.1 21.8 36 18.8 37.4C17.3333 38.0667 15.9 38.5667 14.5 38.9C13.1 39.1667 11.7 39.3 10.3 39.3C7.23333 39.3 4.73333 38.4 2.8 36.6C0.933333 34.8 0 32.3333 0 29.2C0 24 2.6 18.7 7.8 13.3C10.4 10.7 13.6333 8.33333 17.5 6.2C21.4333 4 25.5667 2.16666 29.9 0.699997L33.4 0.199997L36.7 0C40.9 0 44.1333 1.16667 46.4 3.5C48.7333 5.76667 49.9 9 49.9 13.2C49.9 16 49.2333 19.0333 47.9 22.3C46.5667 25.5667 43.9 30.2667 39.9 36.4L28.4 54C27.6 55.2667 26.7333 56.7333 25.8 58.4C24.8667 60 24.2 61.2 23.8 62C23.1333 63.2667 22.7667 64.0333 22.7 64.3C22.3667 65.1667 22.1667 66 22.1 66.8C22.1 67.6 22.3333 68.3 22.8 68.9C23.2667 69.2333 24.0667 69.4667 25.2 69.6C28.4667 69.6 33.3667 66.3667 39.9 59.9C46.5 53.4333 53.2 44.9667 60 34.5L81.4 1.3L89.8 0.800002L61.5 43.5C60.7667 44.5667 60.0333 45.6333 59.3 46.7C58.0333 48.5667 57.2333 49.8333 56.9 50.5L67 44.8C70.3333 42.9333 73.5667 42 76.7 42C79.7 42 82.1 43 83.9 45C84.8333 46 85.5333 47.5 86 49.5C86.4667 51.4333 86.7 53.3667 86.7 55.3C89.7667 55.3 92.4333 55.7667 94.7 56.7C96.9667 57.6333 99.1 58.9667 101.1 60.7C104.633 63.8333 106.4 67.7667 106.4 72.5C106.4 77.7667 104.3 82.2 100.1 85.8C95.9 89.4 90.6667 91.2 84.4 91.2C80.2667 91.2 76.4333 90.4 72.9 88.8C71.0333 88 69.4333 87.1333 68.1 86.2C66.8333 85.3333 65.5333 84.1667 64.2 82.7C64.4667 82.5 64.7333 82.3333 65 82.2C65.2667 82.0667 65.4333 82.0333 65.5 82.1C67.8333 84.4333 70.6 86.3667 73.8 87.9C77.0667 89.4333 80.6 90.2 84.4 90.2C87.0667 90.2 89.6333 89.8 92.1 89C94.5667 88.2 96.7 87.0667 98.5 85.6C102.433 82.6 104.4 79 104.4 74.8C104.4 70.8 102.667 67.3667 99.2 64.5C97.2 62.9667 95.1 61.8 92.9 61C90.7 60.2 88.2333 59.8 85.5 59.8C83.7 63.8667 81.0667 67.6667 77.6 71.2C75.8667 73 73.9333 74.6667 71.8 76.2C69.6667 77.8 67.2667 79.4333 64.6 81.1C62.6 82.1667 60.3667 83.2 57.9 84.2C55.5 85.2667 53.3667 86.1 51.5 86.7C47.5667 87.9 44.2 88.5 41.4 88.5C39 88.5 37.2667 88 36.2 87C34.9333 86.1333 34.3 84.8 34.3 83C34.3 80.0667 36 76.9 39.4 73.5C42.8 70.1 47.5333 66.7667 53.6 63.5C55.8667 62.3 58.0667 61.2667 60.2 60.4C62.4 59.4667 64.5333 58.7 66.6 58.1C68.6667 57.4333 70.8333 56.8667 73.1 56.4C75.4333 55.9333 77.6667 55.5667 79.8 55.3C80.1333 54.5667 80.3 53.4 80.3 51.8C80.3 50.3333 80.1667 49 79.9 47.8C79.6333 46.5333 79.3333 45.6667 79 45.2C78.2667 44.0667 76.9333 43.5 75 43.5C74.1333 43.5 73.1333 43.7 72 44.1C70.9333 44.5 69.2667 45.4 67 46.8C66.2667 47.2667 64.9 48.3667 62.9 50.1C58.1 54.3 54.6667 57.1667 52.6 58.7C48 62.5 44.3667 66.4 41.7 70.4L36.2 71.6C39.3333 67.0667 42.5 62.5333 45.7 58C48.3 54.2 49.8667 51.7667 50.4 50.7C47.7333 53.9667 45.1667 56.8333 42.7 59.3C40.3 61.7667 37.8333 63.9667 35.3 65.9C30.5667 69.7 26.8667 71.6 24.2 71.6C22.4667 71.6 21.1 70.9333 20.1 69.6C19.1 68.2 18.6 66.3 18.6 63.9C18.6 61.1667 19.3 58.1333 20.7 54.8C21.9 51.7333 24.4667 47.2 28.4 41.2L41.1 22C42.1 20.5333 42.8667 19.3 43.4 18.3C43.6667 17.8333 44.2333 16.6 45.1 14.6C45.9667 12.5333 46.4 10.8 46.4 9.4C46.4 6.8 45.5 4.8 43.7 3.4Z" fill="white"/>
<path d="M122.158 62.7C121.624 63.9 119.891 67.5333 116.958 73.6C116.158 75.3333 113.358 81.1667 108.558 91.1C105.558 97.3667 104.058 100.567 104.058 100.7C104.058 101.5 104.258 102 104.658 102.2C105.058 102.4 105.391 102.5 105.658 102.5C106.591 102.5 107.858 101.833 109.458 100.5C110.324 99.8333 111.324 98.9667 112.458 97.9C113.591 96.8333 114.924 95.5333 116.458 94L119.158 91C119.558 90.5333 119.991 90.1 120.458 89.7C120.591 89.5667 120.791 89.4333 121.058 89.3L121.458 89.4L121.658 89.7C121.591 89.9 121.524 90.0667 121.458 90.2C121.458 90.3333 121.291 90.6333 120.958 91.1L117.758 94.6C114.958 97.6 112.458 99.9 110.258 101.5C108.124 103.167 106.558 104 105.558 104C104.158 104 103.024 103.4 102.158 102.2C101.291 101 100.858 99.3333 100.858 97.2L100.958 96C100.958 95.8 102.291 92.8333 104.958 87.1C107.424 81.7 109.958 76.2 112.558 70.6C115.224 64.9333 116.591 62.0333 116.658 61.9C117.791 60.0333 119.324 57 121.258 52.8C123.258 48.6 124.258 46.2333 124.258 45.7C124.258 44.9 124.058 44.4 123.658 44.2C123.258 44 122.924 43.9 122.658 43.9C121.724 43.9 120.458 44.5667 118.858 45.9C117.991 46.5667 116.991 47.4333 115.858 48.5C114.724 49.5667 113.391 50.8667 111.858 52.4L109.158 55.4C108.758 55.8667 108.324 56.3 107.858 56.7C107.724 56.8333 107.524 56.9667 107.258 57.1L106.858 57L106.658 56.7C106.724 56.5 106.758 56.3333 106.758 56.2C106.824 56.0667 107.024 55.7667 107.358 55.3L110.558 51.8C113.358 48.8 115.824 46.5 117.958 44.9C120.158 43.2333 121.758 42.4 122.758 42.4C124.158 42.4 125.291 43 126.158 44.2C127.024 45.4 127.458 47.0667 127.458 49.2L127.358 50.4C127.358 50.5333 126.491 52.5667 124.758 56.5C123.091 60.4333 122.224 62.5 122.158 62.7Z" fill="white"/>
<path d="M130.562 71.2L144.163 50.8C145.896 48.2667 146.762 46.5667 146.762 45.7C146.762 45.3 146.629 45 146.363 44.8C146.163 44.5333 145.829 44.4 145.363 44.4C144.429 44.4 143.029 45.0667 141.163 46.4C139.763 47.6 137.263 50.0667 133.663 53.8L131.262 56.6C130.129 57.8667 129.362 58.5667 128.962 58.7L128.663 58.6L128.462 58.3L128.962 57.2L130.762 55L133.962 51.5C137.229 48.0333 139.662 45.7333 141.262 44.6C142.862 43.4 144.362 42.8 145.762 42.8C146.896 42.8 147.829 43.2333 148.562 44.1C149.296 44.9667 149.663 46.1 149.663 47.5C149.663 49.1 149.329 50.7 148.663 52.3C147.996 54.2333 146.996 56.2333 145.663 58.3C151.063 52.3 154.963 48.3 157.363 46.3C160.029 44.0333 162.196 42.9 163.863 42.9C164.929 42.9 165.863 43.3333 166.663 44.2C167.329 45.2 167.663 46.3667 167.663 47.7C167.663 50.3 165.996 53.8 162.663 58.2L161.462 59.9L157.762 65.4C157.162 66.6 156.863 67.5667 156.863 68.3C156.863 68.9 156.963 69.3667 157.163 69.7C157.429 69.9667 157.862 70.1 158.462 70.1C159.262 70.1 160.629 69.3667 162.562 67.9C164.496 66.4333 166.729 64.3333 169.262 61.6L171.963 58.6C172.496 58.0667 172.863 57.7 173.062 57.5C173.329 57.2333 173.596 57.0333 173.863 56.9L174.262 57.1L174.462 57.4C174.462 57.9333 173.029 59.6667 170.163 62.6L169.562 63.2C169.229 63.5333 168.263 64.4667 166.663 66C165.063 67.5333 163.696 68.7 162.562 69.5C160.762 70.9 159.363 71.6 158.363 71.6C156.963 71.6 155.796 70.9333 154.863 69.6C153.996 68.2667 153.562 66.5667 153.562 64.5C153.562 63.0333 153.962 61.4333 154.762 59.7C155.629 57.9667 157.363 55.4667 159.963 52.2L161.462 50.3C163.396 47.9667 164.363 46.4 164.363 45.6C164.363 45.1333 164.296 44.8333 164.163 44.7L163.262 44.5C161.662 44.5 158.562 46.8 153.962 51.4C149.429 56 143.963 62.3667 137.562 70.5L130.562 71.2Z" fill="white"/>
<path d="M413.527 34.1C411.127 36.4333 409.327 38.9667 408.127 41.7C406.927 44.4333 406.327 47.2 406.327 50C406.327 52.1333 406.96 53.9333 408.227 55.4C409.493 56.6667 411.26 57.3 413.527 57.3C415.66 57.3 417.993 56.6 420.527 55.2C423.06 53.8 425.46 51.8333 427.727 49.3C430.06 46.7 431.86 43.9667 433.127 41.1C434.46 38.1667 435.127 35.2 435.127 32.2C435.127 30.4 434.96 29 434.627 28C434.293 27 433.893 26.2 433.427 25.6C433.027 25 432.527 24.5 431.927 24.1C431.393 23.6333 430.727 23.3333 429.927 23.2C429.127 23 428.227 22.7667 427.227 22.5C426.293 22.2333 424.793 22.1 422.727 22.1C420.66 22.1 416.96 22.7333 411.627 24C406.293 25.2667 402.527 26.5333 400.327 27.8C398.727 31.1333 397.293 33.9333 396.027 36.2C394.827 38.4 393.627 40.4333 392.427 42.3C386.293 52.1667 379.193 59.5333 371.127 64.4C363.06 69.2667 354.093 71.7 344.227 71.7C336.16 71.7 329.727 69.8667 324.927 66.2C320.127 62.4667 317.727 57.5 317.727 51.3C317.727 44.7667 320.493 39.2 326.027 34.6C331.627 29.9333 338.46 27.6 346.527 27.6C352.26 27.6 356.96 29.0333 360.627 31.9C364.36 34.7667 366.227 38.3667 366.227 42.7C366.227 47.7667 364.06 51.9667 359.727 55.3C355.393 58.6333 349.927 60.3 343.327 60.3C339.993 60.3 337.06 59.8667 334.527 59C331.993 58.0667 330.66 57.1667 330.527 56.3L330.727 56.1L331.327 56L332.427 56.4C336.227 58.1333 339.993 59 343.727 59C349.393 59 354.193 57.5 358.127 54.5C362.127 51.4333 364.127 47.8 364.127 43.6C364.127 40.1333 362.66 37.3333 359.727 35.2C358.193 34.1333 356.46 33.3333 354.527 32.8C352.593 32.2667 350.327 32 347.727 32C340.327 32 333.96 34.0667 328.627 38.2C323.36 42.3333 320.727 47.2667 320.727 53C320.727 58.5333 322.693 62.7667 326.627 65.7C328.493 67.1667 330.893 68.3 333.827 69.1C336.76 69.9 339.927 70.3 343.327 70.3C347.593 70.3 351.427 69.8667 354.827 69C358.293 68.1333 361.593 66.7 364.727 64.7C370.727 60.9 376.66 54.4667 382.527 45.4L385.827 40C393.893 27 401.36 17.1667 408.227 10.5C404.56 12.6333 401.493 14.2333 399.027 15.3C396.56 16.2333 394.593 16.7 393.127 16.7C391.127 16.7 389.393 16.0333 387.927 14.7C387.26 13.9667 386.76 13.2 386.427 12.4C386.093 11.6 385.927 10.6333 385.927 9.5L386.027 7.4L386.127 6.1C386.127 5.16667 385.927 4.5 385.527 4.1C385.127 3.7 384.527 3.46666 383.727 3.4C381.993 3.4 379.66 4.6 376.727 7C373.86 9.33333 370.96 12.5 368.027 16.5C366.893 18.1 365.993 19.4 365.327 20.4C365.193 20.6 364.693 21.4667 363.827 23C362.693 25.1333 361.927 26.2333 361.527 26.3L361.327 25.8C361.327 24.9333 361.993 23.3 363.327 20.9C364.727 18.5 366.56 15.9 368.827 13.1C370.293 11.2333 371.827 9.53333 373.427 8C375.093 6.4 376.793 5.03333 378.527 3.9C381.66 1.63333 384.527 0.5 387.127 0.5C388.993 0.5 390.427 1.16667 391.427 2.5C392.427 3.76666 392.927 5.53333 392.927 7.8V9.8C392.927 11.4 393.16 12.5333 393.627 13.2C394.093 13.8667 394.86 14.2 395.927 14.2C397.327 14.2 399.493 13.5667 402.427 12.3C405.427 10.8333 408.76 9 412.427 6.8L417.827 3.2C420.36 1.4 421.96 0.5 422.627 0.5C423.16 0.5 423.527 0.633333 423.727 0.9C423.927 1.1 424.027 1.26666 424.027 1.4C424.027 2.4 422.66 3.5 419.927 4.7L418.927 5.1C416.46 6.16666 414.393 7.4 412.727 8.8C411.127 10.2 409.46 12.1333 407.727 14.6C406.793 15.9333 406.027 17.1333 405.427 18.2C404.493 19.9333 403.827 21.4 403.427 22.6C405.36 21.6667 408.393 20.9333 412.527 20.4C416.66 19.8667 420.027 19.6 422.627 19.6C423.693 19.6 424.827 19.7667 426.027 20.1C426.293 20.1667 427.36 20.5333 429.227 21.2C430.093 21.4 430.893 21.6667 431.627 22C432.427 22.3333 433.193 22.8667 433.927 23.6C434.727 24.2667 435.427 25.1667 436.027 26.3C436.427 27.1 436.793 28.0333 437.127 29.1C437.26 29.6333 437.427 30.4667 437.627 31.6C437.827 32.6667 437.927 33.5 437.927 34.1C437.927 37.2333 437.227 40.4 435.827 43.6C434.493 46.7333 432.66 49.5333 430.327 52C429.193 53.1333 428.027 54.1 426.827 54.9C425.693 55.7 424.327 56.4667 422.727 57.2C419.86 58.5333 417.193 59.2 414.727 59.2C411.66 59.2 409.26 58.4 407.527 56.8C405.86 55.1333 405.027 52.8667 405.027 50V47.8C405.027 45.1333 405.293 43.0333 405.827 41.5C406.627 39.1 408.293 36.6333 410.827 34.1C412.827 32.1 415.027 30.3 417.427 28.7C419.827 27.1 421.593 26.3 422.727 26.3C421.927 27.1 420.027 28.7 417.027 31.1C415.493 32.3 414.327 33.3 413.527 34.1Z" fill="white"/>
<path d="M529.156 12.9V10.2H549.456L539.556 25.7L538.856 26.7C537.79 28.3667 535.49 32.5333 531.956 39.2C527.823 46.8667 524.523 53.1333 522.056 58C518.723 64.4667 517.056 67.9 517.056 68.3C517.056 68.8333 517.19 69.2667 517.456 69.6C517.79 69.9333 518.19 70.1 518.656 70.1C521.256 70.1 524.756 67.8 529.156 63.2C531.156 61.0667 533.323 58.3333 535.656 55C538.056 51.6667 540.49 47.9333 542.956 43.8L549.656 43.4L537.656 62.4L537.556 62.7C535.756 65.4333 534.856 67.3 534.856 68.3C534.856 68.9 534.99 69.3667 535.256 69.7C535.523 69.9667 535.923 70.1 536.456 70.1C537.39 70.1 538.656 69.4333 540.256 68.1C541.123 67.4333 542.123 66.5667 543.256 65.5C544.39 64.4333 545.723 63.1333 547.256 61.6L549.956 58.6C550.356 58.1333 550.79 57.7 551.256 57.3C551.39 57.1667 551.59 57.0333 551.856 56.9L552.256 57L552.456 57.3C552.39 57.5 552.323 57.6667 552.256 57.8C552.256 57.9333 552.09 58.2333 551.756 58.7L548.556 62.2C545.756 65.2 543.256 67.5333 541.056 69.2C538.923 70.8 537.356 71.6 536.356 71.6C534.956 71.6 533.823 71 532.956 69.8C532.09 68.6 531.656 66.9333 531.656 64.8L531.756 63.6L532.056 61.9C529.523 64.9667 527.09 67.3667 524.756 69.1C522.423 70.7667 520.49 71.6 518.956 71.6C517.223 71.6 515.856 71.0333 514.856 69.9C513.923 68.7667 513.456 67.2333 513.456 65.3C513.456 64.5667 515.356 60.6333 519.156 53.5C521.023 50.0333 524.756 43.1 530.356 32.7C534.956 24.2333 537.656 19.0333 538.456 17.1L540.256 12.9C537.056 12.9 534.823 12.9 533.556 12.9C532.356 12.9 530.89 12.9 529.156 12.9Z" fill="white"/>
<path d="M612.026 42.2L598.926 61.7L598.526 62.3C596.659 65.0333 595.726 66.8333 595.726 67.7C595.726 68.1 595.826 68.4333 596.026 68.7C596.292 68.9 596.659 69 597.126 69C598.059 69 599.459 68.3333 601.326 67C602.726 65.8 605.226 63.3333 608.826 59.6L611.226 56.8C612.359 55.5333 613.126 54.8333 613.526 54.7L613.826 54.8L614.026 55.1L613.526 56.2L611.726 58.4L608.526 61.9C605.259 65.3667 602.826 67.7 601.226 68.9C599.626 70.0333 598.126 70.6 596.726 70.6C595.592 70.6 594.659 70.1667 593.926 69.3C593.192 68.4333 592.826 67.3 592.826 65.9C592.826 64.3 593.159 62.7 593.826 61.1C594.492 59.1667 595.492 57.1667 596.826 55.1C592.426 60.7 588.859 64.7 586.126 67.1C583.459 69.4333 581.226 70.6 579.426 70.6C578.292 70.6 577.326 70.2 576.526 69.4C575.792 68.5333 575.426 67.5333 575.426 66.4C575.426 64.8667 575.759 63.1333 576.426 61.2C577.159 59.2 578.226 57.2333 579.626 55.3C574.226 61.3667 570.292 65.4333 567.826 67.5C565.426 69.5667 563.492 70.6 562.026 70.6C560.959 70.6 560.026 70.1667 559.226 69.3C558.559 68.3 558.226 67.1 558.226 65.7C558.226 63.2333 559.892 59.7333 563.226 55.2L564.426 53.5L568.126 48C568.726 46.8 569.026 45.8333 569.026 45.1C569.026 44.5 568.892 44.0667 568.626 43.8C568.426 43.4667 568.026 43.3 567.426 43.3C566.626 43.3 565.226 44.0667 563.226 45.6C561.226 47.1333 559.026 49.2 556.626 51.8L553.926 54.8C553.392 55.3333 552.992 55.7333 552.726 56C552.526 56.2 552.292 56.3667 552.026 56.5L551.626 56.3L551.426 56C551.426 55.4667 552.859 53.7333 555.726 50.8L556.326 50.2C558.126 48.4 559.392 47.1667 560.126 46.5C561.259 45.5 562.326 44.6333 563.326 43.9C565.126 42.5 566.526 41.8 567.526 41.8C568.926 41.8 570.059 42.4667 570.926 43.8C571.859 45.1333 572.326 46.8333 572.326 48.9C572.326 50.3667 571.892 51.9667 571.026 53.7C570.226 55.4333 568.526 57.9333 565.926 61.2L564.426 63.1C562.492 65.4333 561.526 67 561.526 67.8C561.526 68.2 561.659 68.5 561.926 68.7C562.192 68.9 562.426 69 562.626 69C564.092 69 567.059 66.6333 571.526 61.9C576.059 57.1 581.392 50.7667 587.526 42.9L594.526 42.2L581.526 61.7L579.026 65.8C578.626 66.6 578.426 67.2667 578.426 67.8C578.426 68.2 578.526 68.5 578.726 68.7C578.926 68.9 579.292 69 579.826 69C582.426 69 589.826 61.5 602.026 46.5L604.926 42.9L612.026 42.2Z" fill="white"/>
<path fill-rule="evenodd" clip-rule="evenodd" d="M420.764 96.8L414.264 97.5L443.464 48.2L452.764 33L454.164 29.9L460.164 29.4L443.164 58.3C448.897 52.1 452.931 48.0333 455.264 46.1C457.864 43.9 459.931 42.8 461.464 42.8C462.531 42.8 463.464 43.2333 464.264 44.1C464.931 45.1 465.264 46.3 465.264 47.7C465.264 50.1667 463.597 53.6667 460.264 58.2L459.064 59.9L455.364 65.4C454.764 66.6 454.464 67.5667 454.464 68.3C454.464 68.9 454.564 69.3667 454.764 69.7C455.031 69.9667 455.464 70.1 456.064 70.1C456.931 70.1 458.331 69.3333 460.264 67.8C462.264 66.2667 464.464 64.2 466.864 61.6L469.564 58.6L470.664 57.5C470.931 57.2333 471.197 57.0333 471.464 56.9L471.864 57L471.964 57.4C471.897 57.6667 471.797 57.9 471.664 58.1C471.531 58.3 471.331 58.5667 471.064 58.9L467.164 63.2C464.497 66 462.197 68.1 460.264 69.5C458.331 70.9 456.897 71.6 455.964 71.6C454.564 71.6 453.397 70.9333 452.464 69.6C451.597 68.2667 451.164 66.5667 451.164 64.5C451.164 63.0333 451.564 61.4333 452.364 59.7C453.231 57.9667 454.964 55.4667 457.564 52.2L459.064 50.3C460.997 47.9667 461.964 46.4 461.964 45.6C461.964 45.2 461.864 44.9 461.664 44.7C461.464 44.5 461.197 44.4 460.864 44.4C458.931 44.4 455.197 47.3 449.664 53.1C444.131 58.8333 438.897 65.9333 433.964 74.4L420.764 96.8Z" fill="white"/>
<path fill-rule="evenodd" clip-rule="evenodd" d="M458.959 96L506.959 10.5L513.159 10L484.859 58.3C490.593 52.1 494.626 48.0333 496.959 46.1C499.559 43.9 501.626 42.8 503.159 42.8C504.226 42.8 505.159 43.2333 505.959 44.1C506.626 45.1 506.959 46.3 506.959 47.7C506.959 50.1667 505.293 53.6667 501.959 58.2L500.759 59.9L497.059 65.4C496.459 66.6 496.159 67.5667 496.159 68.3C496.159 68.9 496.259 69.3667 496.459 69.7C496.726 69.9667 497.159 70.1 497.759 70.1C498.626 70.1 500.026 69.3333 501.959 67.8C503.959 66.2667 506.159 64.2 508.559 61.6L511.259 58.6L512.359 57.5C512.626 57.2333 512.893 57.0333 513.159 56.9L513.559 57L513.659 57.4C513.593 57.6667 513.493 57.9 513.359 58.1C513.226 58.3 513.026 58.5667 512.759 58.9L508.859 63.2C506.193 66 503.893 68.1 501.959 69.5C500.026 70.9 498.593 71.6 497.659 71.6C496.259 71.6 495.093 70.9333 494.159 69.6C493.293 68.2667 492.859 66.5667 492.859 64.5C492.859 63.0333 493.259 61.4333 494.059 59.7C494.926 57.9667 496.659 55.4667 499.259 52.2L500.759 50.3C502.693 47.9667 503.659 46.4 503.659 45.6C503.659 45.2 503.559 44.9 503.359 44.7C503.159 44.5 502.893 44.4 502.559 44.4C501.026 44.4 497.926 46.7667 493.259 51.5C491.859 52.9 489.226 56.7 485.359 62.9C481.559 69.1 477.826 75.2667 474.159 81.4C469.826 88.4667 466.793 93.1 465.059 95.3L458.959 96Z" fill="white"/>
<path fill-rule="evenodd" clip-rule="evenodd" d="M175.198 66.7C176.198 67.8333 177.565 68.4 179.298 68.4C181.898 68.4 184.598 67.8333 187.398 66.7C190.265 65.5 193.032 63.8 195.698 61.6L172.798 100.7L179.298 100L192.198 76.4C195.065 71.1333 197.532 66.9333 199.598 63.8C202.398 59.5333 205.165 56.0333 207.898 53.3C213.432 47.3667 217.165 44.4 219.098 44.4C219.432 44.4 219.698 44.5 219.898 44.7C220.098 44.9 220.198 45.2 220.198 45.6C220.198 46.4 219.232 47.9667 217.298 50.3L215.798 52.2C213.198 55.4667 211.465 57.9667 210.598 59.7C209.798 61.4333 209.398 63.0333 209.398 64.5C209.398 66.5667 209.832 68.2667 210.698 69.6C211.632 70.9333 212.798 71.6 214.198 71.6C215.132 71.6 216.565 70.9 218.498 69.5C220.432 68.1 222.732 66 225.398 63.2L229.298 58.9C229.565 58.5667 229.765 58.3 229.898 58.1C230.032 57.9 230.132 57.6667 230.198 57.4L230.098 57L229.698 56.9C229.432 57.0333 229.165 57.2333 228.898 57.5L227.798 58.6L225.098 61.6C222.698 64.2 220.498 66.2667 218.498 67.8C216.565 69.3333 215.165 70.1 214.298 70.1C213.698 70.1 213.265 69.9667 212.998 69.7C212.798 69.3667 212.698 68.9 212.698 68.3C212.698 67.5667 212.998 66.6 213.598 65.4L217.298 59.9L218.498 58.2C221.832 53.6667 223.498 50.1667 223.498 47.7C223.498 46.3 223.165 45.1 222.498 44.1C221.698 43.2333 220.765 42.8 219.698 42.8C218.165 42.8 216.098 43.9 213.498 46.1C212.032 47.1667 210.598 48.2333 209.198 49.3C207.265 50.8333 205.132 52.8667 202.798 55.4L212.398 38.4L205.398 39.1L203.798 44.1C203.065 46.2333 202.065 48.4333 200.798 50.7C199.532 52.9667 198.098 54.9667 196.498 56.7C194.165 59.3 192.232 61 190.698 61.8C190.498 61.8667 190.265 61.9667 189.998 62.1C185.132 65.3 181.465 66.9 178.998 66.9C178.532 66.9 178.132 66.7333 177.798 66.4C177.532 66.0667 177.398 65.6333 177.398 65.1C177.398 64.0333 178.798 61.2333 181.598 56.7L182.298 55.7L192.198 40.2L185.6 40.5666L181.198 47.1C176.265 54.4333 173.798 59.4333 173.798 62.1C173.798 64.0333 174.265 65.5667 175.198 66.7Z" fill="white"/>
<path d="M291.627 32.1804C290.435 31.052 289.02 30.1568 287.463 29.5461C285.905 28.9353 284.236 28.621 282.55 28.621C280.864 28.621 279.195 28.9353 277.638 29.5461C276.08 30.1568 274.665 31.052 273.473 32.1804L271 34.5213L268.527 32.1804C266.119 29.9021 262.855 28.6222 259.45 28.6222C256.046 28.6222 252.781 29.9021 250.373 32.1804C247.966 34.4587 246.614 37.5488 246.614 40.7708C246.614 43.9929 247.966 47.0829 250.373 49.3613L271 68.8829L291.627 49.3613C292.819 48.2333 293.765 46.8941 294.41 45.4202C295.056 43.9462 295.388 42.3663 295.388 40.7708C295.388 39.1753 295.056 37.5955 294.41 36.1215C293.765 34.6475 292.819 33.3083 291.627 32.1804Z" fill="white" stroke="white" stroke-width="4" stroke-linecap="round" stroke-linejoin="round"/>
</svg>
