<svg width="547" height="118" viewBox="0 0 547 118" fill="none" xmlns="http://www.w3.org/2000/svg">
<path d="M311.627 52.1804C310.435 51.052 309.02 50.1568 307.463 49.5461C305.905 48.9353 304.236 48.621 302.55 48.621C300.864 48.621 299.195 48.9353 297.638 49.5461C296.08 50.1568 294.665 51.052 293.473 52.1804L291 54.5213L288.527 52.1804C286.119 49.9021 282.855 48.6222 279.45 48.6222C276.046 48.6222 272.781 49.9021 270.373 52.1804C267.966 54.4587 266.614 57.5488 266.614 60.7708C266.614 63.9929 267.966 67.0829 270.373 69.3613L291 88.8829L311.627 69.3613C312.819 68.2333 313.765 66.8941 314.41 65.4202C315.056 63.9462 315.388 62.3663 315.388 60.7708C315.388 59.1753 315.056 57.5955 314.41 56.1215C313.765 54.6475 312.819 53.3083 311.627 52.1804Z" fill="white" stroke="white" stroke-width="4" stroke-linecap="round" stroke-linejoin="round"/>
<path d="M107 80.4C105.4 81.7333 103.6 83.0667 101.6 84.4C99.6667 85.6667 96.9 87.1 93.3 88.7C89.7 90.2333 86.4667 91 83.6 91C79.7333 91 77.1667 89.7667 75.9 87.3C74.6333 84.7667 74 80.6 74 74.8C74 70.9333 74.4 66.2 75.2 60.6C69.2 61.2667 65.2 61.6 63.2 61.6C60.4667 61.6 56.9 61.2333 52.5 60.5C48.1 59.7667 45.3333 59.4 44.2 59.4C43.2667 59.4 42.6 59.4667 42.2 59.6C29.4 74.2 20.4 83.6667 15.2 88C13.2667 89.4667 10.4 90.4 6.6 90.8C6.26667 90.8667 5.73333 90.9667 5 91.1C4.33333 91.2333 3.7 91.3333 3.1 91.4C2.43333 91.4667 1.8 91.5 1.2 91.5C0.4 91.5 0 91.2667 0 90.8C0 90.4 0.533333 90.0667 1.6 89.8C3.6 89.1333 5.73333 87.8 8 85.8C18.0667 77 28.5667 67.1 39.5 56.1C50.4333 45.0333 63.8 30.2667 79.6 11.8C80.6667 10.6 81.5333 9.6 82.2 8.80001C82.9333 7.93334 83.6667 7.16667 84.4 6.50001C85.1333 5.83334 85.6667 5.36667 86 5.10001C86.3333 4.76667 86.8333 4.4 87.5 4C88.2333 3.6 88.7 3.36667 88.9 3.30001C89.1 3.16667 89.6667 2.93334 90.6 2.6C91.5333 2.2 92.2 1.93334 92.6 1.8C92.8 1.73333 93.4667 1.43333 94.6 0.9C95.8 0.3 96.6 0 97 0C97.5333 0 97.8 0.333335 97.8 1.00001C97.8 1.53334 97.6333 2.23333 97.3 3.1C97.0333 3.9 96.7 4.76667 96.3 5.7C95.9 6.56667 95.6667 7.06667 95.6 7.2C93.6667 12.1333 91.5667 19.5 89.3 29.3C87.0333 39.0333 85.3333 48.2667 84.2 57C86.2667 56.4 88.4333 55.4667 90.7 54.2C92.9667 52.9333 94.8 51.8333 96.2 50.9C97.6 49.9 98.4 49.4 98.6 49.4C99 49.4 99.2 49.6 99.2 50C99.2 50.3333 98.4667 51.0333 97 52.1C95.5333 53.1667 93.5667 54.3667 91.1 55.7C88.6333 56.9667 86.2667 58 84 58.8C83.3333 64.6 83 69.1333 83 72.4C83 77.9333 83.5 81.8 84.5 84C85.5667 86.2 87.1 87.3 89.1 87.3C91.1 87.3 93.7 86.5333 96.9 85C100.167 83.4667 103.267 81.6 106.2 79.4C110.333 76.2 114.867 71.5333 119.8 65.4C120.067 65 120.333 64.8 120.6 64.8C120.867 64.8 121 64.9333 121 65.2C121 65.3333 120.933 65.5333 120.8 65.8C116.267 71.9333 111.667 76.8 107 80.4ZM45.4 56H48.8C51.4667 56 55.3667 56.4 60.5 57.2C65.6333 58 69.3333 58.4 71.6 58.4C73.2 58.4 74.5333 58.3333 75.6 58.2C76.0667 54.3333 76.7333 50.0667 77.6 45.4C78.4667 40.6667 79.3333 36.3333 80.2 32.4C81.1333 28.4 82 24.7 82.8 21.3C83.6 17.9 84.2667 15.2 84.8 13.2C85.3333 11.1333 85.6 10.0667 85.6 10C85.6 9.6 85.5 9.4 85.3 9.4C84.8333 9.4 83.7333 10.4667 82 12.6L45.4 56Z" fill="white"/>
<path d="M197.655 71.4C197.255 72.3333 196.589 73.8 195.655 75.8C194.789 77.8 193.689 79.8 192.355 81.8C191.022 83.8 189.455 85.5667 187.655 87.1C185.922 88.6333 184.022 89.4 181.955 89.4C180.422 89.4 179.122 89.1667 178.055 88.7C177.055 88.1667 176.222 87.5333 175.555 86.8C174.155 87.8667 172.722 88.7333 171.255 89.4C169.789 90 168.322 90.2667 166.855 90.2C164.922 90.1333 163.389 89.5667 162.255 88.5C161.189 87.4333 160.455 86.0667 160.055 84.4C159.722 82.6667 159.722 80.7333 160.055 78.6C160.389 76.4 161.022 74.2 161.955 72C162.955 69.7333 164.189 67.5667 165.655 65.5C167.122 63.4333 168.689 61.6333 170.355 60.1C172.089 58.5667 173.855 57.3667 175.655 56.5C177.455 55.5667 179.222 55.1333 180.955 55.2C182.822 55.2 184.322 55.7333 185.455 56.8C186.589 57.8667 187.322 59.2667 187.655 61C188.055 62.7333 188.089 64.7 187.755 66.9C187.422 69.0333 186.789 71.2 185.855 73.4C185.122 75.1333 184.022 77.1 182.555 79.3C181.089 81.4333 179.389 83.4 177.455 85.2C178.322 86.8667 179.889 87.7 182.155 87.7C183.755 87.7 185.255 87.0333 186.655 85.7C188.122 84.3667 189.455 82.7667 190.655 80.9C191.855 79.0333 192.922 77.1333 193.855 75.2C194.789 73.2667 195.555 71.7 196.155 70.5C196.422 69.9667 196.822 69.8 197.355 70C197.889 70.2 197.989 70.6667 197.655 71.4ZM183.055 58.5C181.989 58.2333 180.822 58.4 179.555 59C178.289 59.5333 177.022 60.4333 175.755 61.7C174.489 62.9 173.255 64.3667 172.055 66.1C170.855 67.7667 169.789 69.6 168.855 71.6C167.855 73.6667 167.055 75.6333 166.455 77.5C165.922 79.3 165.589 80.9333 165.455 82.4C165.322 83.8667 165.422 85.1 165.755 86.1C166.089 87.0333 166.722 87.6333 167.655 87.9C168.589 88.1667 169.655 88.0667 170.855 87.6C172.055 87.1333 173.255 86.4 174.455 85.4C173.922 84.6 173.522 83.7667 173.255 82.9C172.989 82.0333 172.855 81.2333 172.855 80.5C172.922 79.3667 173.189 78.3667 173.655 77.5C174.189 76.6333 175.089 76.2 176.355 76.2C177.222 76.2 177.922 76.5 178.455 77.1C179.055 77.7 179.355 78.4 179.355 79.2C179.355 79.4 179.322 79.6 179.255 79.8C179.255 79.9333 179.222 80.1 179.155 80.3C180.289 78.6333 181.322 76.8333 182.255 74.9C183.255 72.8333 184.022 70.8667 184.555 69C185.089 67.1333 185.389 65.4667 185.455 64C185.522 62.5333 185.355 61.3333 184.955 60.4C184.555 59.4 183.922 58.7667 183.055 58.5Z" fill="white"/>
<path d="M363.552 27.96C363.552 29.9867 362.405 33.1867 360.112 37.56C357.819 41.88 355.285 46.2 352.512 50.52C349.792 54.84 347.285 59.56 344.992 64.68C342.699 69.7467 341.552 73.96 341.552 77.32C341.552 80.84 342.379 83.5067 344.032 85.32C345.739 87.08 348.085 87.96 351.072 87.96C356.245 87.96 361.739 85.48 367.552 80.52C373.419 75.5067 379.019 69.1333 384.352 61.4C386.965 55.64 390.085 49.0533 393.712 41.64C397.392 34.1733 399.365 30.1733 399.632 29.64C400.325 28.1467 401.019 27.0533 401.712 26.36C402.459 25.6133 403.525 25.0267 404.912 24.6C408.912 23.32 411.232 22.68 411.872 22.68C412.299 22.68 412.512 22.8933 412.512 23.32C412.512 23.48 412.352 23.64 412.032 23.8C411.765 23.96 411.365 24.2267 410.832 24.6C410.299 24.9733 409.819 25.48 409.392 26.12C407.045 29.64 403.792 35.1067 399.632 42.52C395.525 49.88 392.379 56.12 390.192 61.24C387.365 67.7467 385.499 72.3333 384.592 75C383.739 77.6133 383.312 80.2 383.312 82.76C383.312 84.2533 383.659 85.5333 384.352 86.6C385.045 87.6133 386.112 88.12 387.552 88.12C391.019 88.12 395.659 85.9333 401.472 81.56C404.779 79 408.405 75.2667 412.352 70.36C412.565 70.04 412.779 69.88 412.992 69.88C413.205 69.88 413.312 69.9867 413.312 70.2C413.312 70.3067 413.259 70.4667 413.152 70.68C409.525 75.5867 405.845 79.48 402.112 82.36C394.485 88.12 388.192 91 383.232 91C378.219 91 375.712 88.4133 375.712 83.24C375.712 82.2267 375.925 81 376.352 79.56C376.779 78.12 377.205 76.8933 377.632 75.88C378.112 74.8667 378.699 73.6133 379.392 72.12C380.139 70.6267 380.565 69.7467 380.672 69.48H380.592C377.979 72.52 375.472 75.2133 373.072 77.56C370.672 79.9067 368.032 82.2267 365.152 84.52C362.272 86.76 359.312 88.4933 356.272 89.72C353.285 90.9467 350.352 91.56 347.472 91.56C343.472 91.56 340.272 90.52 337.872 88.44C335.472 86.36 334.272 83.2933 334.272 79.24C334.272 76.0933 335.419 71.88 337.712 66.6C340.059 61.2667 342.619 56.2533 345.392 51.56C348.219 46.8667 350.779 42.2267 353.072 37.64C355.419 33.0533 356.592 29.8 356.592 27.88C356.592 26.5467 356.245 25.32 355.552 24.2C354.859 23.08 353.792 22.52 352.352 22.52C348.992 22.52 345.605 24.2267 342.192 27.64C341.125 28.7067 340.539 29.24 340.432 29.24C340.112 29.24 339.952 29.08 339.952 28.76C339.952 28.44 340.539 27.6933 341.712 26.52C346.352 21.72 351.045 19.32 355.792 19.32C357.872 19.32 359.685 20.0933 361.232 21.64C362.779 23.1867 363.552 25.2933 363.552 27.96Z" fill="white"/>
<path d="M395.306 112.1C394.306 114.233 393.373 115.667 392.506 116.4C391.573 117.133 390.273 117.433 388.606 117.3C387.94 117.233 387.273 117.1 386.606 116.9C385.873 116.7 385.14 116.667 384.406 116.8C384.806 116.4 385.573 115.233 386.706 113.3C387.84 111.433 389.14 109.1 390.606 106.3C392.073 103.567 393.64 100.567 395.306 97.3C396.973 94.0333 398.506 90.8333 399.906 87.7C401.373 84.5667 402.606 81.7 403.606 79.1C404.673 76.4333 405.373 74.3333 405.706 72.8C405.173 73.6667 404.573 74.2333 403.906 74.5C403.24 74.7 403.073 74.4333 403.406 73.7C403.673 73.1667 404.006 72.4333 404.406 71.5C404.806 70.5667 405.14 69.8 405.406 69.2C405.873 68.1333 406.273 66.9 406.606 65.5C407.006 64.1 407.24 62.7667 407.306 61.5C407.44 60.2333 407.406 59.1667 407.206 58.3C407.006 57.3667 406.606 56.8333 406.006 56.7C406.74 56.5667 407.44 56.4333 408.106 56.3C408.64 56.1667 409.173 56.1 409.706 56.1C410.306 56.0333 410.706 55.9667 410.906 55.9C411.64 55.8333 412.24 55.8 412.706 55.8C413.173 55.7333 413.54 55.8 413.806 56C414.073 56.2 414.24 56.6333 414.306 57.3C414.44 57.9 414.506 58.8 414.506 60C414.506 61 414.34 62.2 414.006 63.6C413.74 64.9333 413.406 66.3333 413.006 67.8C412.606 69.2667 412.173 70.7 411.706 72.1C411.24 73.5 410.806 74.7333 410.406 75.8C411.406 74.5333 412.673 73.0667 414.206 71.4C415.74 69.6667 417.273 68.1333 418.806 66.8C420.006 65.7333 421.473 64.6 423.206 63.4C425.006 62.1333 426.806 61.0333 428.606 60.1C430.406 59.1 432.073 58.3333 433.606 57.8C435.206 57.2667 436.44 57.1333 437.306 57.4C435.306 61 433.473 64.4333 431.806 67.7C431.073 69.1 430.34 70.5333 429.606 72C428.94 73.4667 428.306 74.9 427.706 76.3C427.106 77.6333 426.573 78.9 426.106 80.1C425.706 81.3 425.44 82.3333 425.306 83.2C424.906 85.2667 424.906 86.6333 425.306 87.3C425.706 87.9 426.24 88.2 426.906 88.2C428.173 88.2 429.506 87.5 430.906 86.1C432.306 84.7 433.64 83.0667 434.906 81.2C436.173 79.2667 437.306 77.3333 438.306 75.4C439.306 73.4667 440.073 71.9667 440.606 70.9C441.006 70.0333 441.44 69.7333 441.906 70C442.44 70.2 442.473 70.8 442.006 71.8C441.273 73.3333 440.34 75.1667 439.206 77.3C438.14 79.4333 436.906 81.5 435.506 83.5C434.106 85.4333 432.573 87.1 430.906 88.5C429.24 89.9 427.44 90.6 425.506 90.6C424.64 90.6 423.74 90.4333 422.806 90.1C421.873 89.7667 421.073 89.1667 420.406 88.3C419.806 87.3667 419.44 86.1667 419.306 84.7C419.173 83.1667 419.473 81.2333 420.206 78.9C420.606 77.5667 421.273 76.0667 422.206 74.4C423.14 72.6667 424.306 70.6667 425.706 68.4C426.306 67.4 426.64 66.5333 426.706 65.8C426.773 65.0667 426.506 64.6333 425.906 64.5C425.373 64.3667 424.506 64.6333 423.306 65.3C422.106 65.9667 420.54 67.2 418.606 69C417.74 69.8 416.74 70.7333 415.606 71.8C414.54 72.8667 413.373 74.2 412.106 75.8C410.906 77.3333 409.673 79.1667 408.406 81.3C407.14 83.4333 405.906 85.9333 404.706 88.8L395.306 112.1Z" fill="white"/>
<path d="M477.546 71.8C476.746 73.5333 475.813 75.4667 474.746 77.6C473.679 79.6667 472.479 81.6333 471.146 83.5C469.813 85.3667 468.346 86.9333 466.746 88.2C465.146 89.4667 463.446 90.1 461.646 90.1C460.513 90.1 459.513 89.8333 458.646 89.3C457.779 88.7 457.113 87.8667 456.646 86.8C456.246 85.6667 456.046 84.3 456.046 82.7C456.046 81.1 456.379 79.3 457.046 77.3C456.179 78.8333 455.213 80.3667 454.146 81.9C453.146 83.3667 452.046 84.7333 450.846 86C449.713 87.2 448.513 88.2 447.246 89C445.979 89.7333 444.746 90.1 443.546 90.1C443.013 90.1 442.413 90.0667 441.746 90C441.146 89.8667 440.546 89.6333 439.946 89.3C439.346 88.9667 438.779 88.5 438.246 87.9C437.779 87.3 437.446 86.5333 437.246 85.6C437.046 84.5333 437.013 83.5 437.146 82.5C437.279 81.5 437.513 80.5333 437.846 79.6C438.246 78.6 438.679 77.6667 439.146 76.8C439.679 75.8667 440.179 74.9333 440.646 74C440.313 74 439.979 73.9 439.646 73.7C439.379 73.5 439.413 73.0667 439.746 72.4C440.079 71.8667 440.379 71.3 440.646 70.7C440.913 70.1 441.213 69.5 441.546 68.9C442.546 66.9667 443.546 65.0333 444.546 63.1C445.546 61.1667 446.413 59.4333 447.146 57.9C447.546 57.1 448.046 56.5667 448.646 56.3C449.313 55.9667 450.113 55.8 451.046 55.8H457.146C456.546 56.2 456.013 56.6333 455.546 57.1C455.079 57.5 454.579 58 454.046 58.6C453.579 59.2 453.079 59.9333 452.546 60.8C452.013 61.6667 451.413 62.8 450.746 64.2C449.813 65.9333 448.979 67.6 448.246 69.2C447.513 70.6 446.813 72.0333 446.146 73.5C445.479 74.9667 444.913 76.1667 444.446 77.1C443.246 79.7 442.579 81.8667 442.446 83.6C442.313 85.3333 442.546 86.5667 443.146 87.3C443.813 87.9667 444.779 88.0667 446.046 87.6C447.313 87.0667 448.746 85.8667 450.346 84C451.746 82.4 453.113 80.5 454.446 78.3C455.846 76.1 457.179 73.8333 458.446 71.5C459.713 69.1 460.913 66.7333 462.046 64.4C463.246 62.0667 464.313 59.9 465.246 57.9C465.646 57.1 466.146 56.5667 466.746 56.3C467.413 55.9667 468.213 55.8 469.146 55.8H474.546C473.813 56.4 473.179 56.9667 472.646 57.5C472.113 57.9667 471.579 58.5667 471.046 59.3C470.579 59.9667 470.079 60.8333 469.546 61.9C469.013 62.9 468.379 64.1667 467.646 65.7C466.913 67.1 466.179 68.5667 465.446 70.1C464.779 71.5667 464.113 73.0333 463.446 74.5C462.846 75.9 462.313 77.2333 461.846 78.5C461.379 79.7 461.079 80.7333 460.946 81.6C460.479 83.7333 460.479 85.2667 460.946 86.2C461.479 87.0667 462.113 87.5333 462.846 87.6C464.046 87.6 465.246 87.0667 466.446 86C467.713 84.9333 468.913 83.6 470.046 82C471.179 80.3333 472.246 78.5333 473.246 76.6C474.313 74.6 475.279 72.7 476.146 70.9C476.546 70.0333 476.979 69.7333 477.446 70C477.979 70.2 478.013 70.8 477.546 71.8Z" fill="white"/>
<path d="M479.588 75.8C479.188 76.6667 478.855 77.3667 478.588 77.9C478.322 78.4333 478.022 79.1 477.688 79.9C477.355 80.7 476.888 81.7667 476.288 83.1C475.688 84.4333 474.855 86.3333 473.788 88.8C473.388 89.5333 472.922 89.9667 472.388 90.1C471.855 90.2333 471.055 90.3 469.988 90.3C469.255 90.3667 468.655 90.4 468.188 90.4C467.655 90.4 467.122 90.5667 466.588 90.9C468.988 86.1 471.255 81.3667 473.388 76.7C475.588 72.0333 477.922 67.4333 480.388 62.9C481.655 60.5 482.755 58.8333 483.688 57.9C484.622 56.9667 485.888 56.5333 487.488 56.6C488.155 56.6667 488.822 56.8 489.488 57C490.222 57.1333 490.955 57.1333 491.688 57C490.955 57.4 490.055 58.2667 488.988 59.6C487.988 60.9333 486.922 62.5 485.788 64.3C484.722 66.1 483.622 68.0333 482.488 70.1C481.422 72.1 480.455 74 479.588 75.8ZM497.288 75.8C496.822 76.7333 496.322 77.9 495.788 79.3C495.322 80.6333 494.988 81.9667 494.788 83.3C494.588 84.5667 494.622 85.6667 494.888 86.6C495.222 87.5333 495.988 88 497.188 88C498.455 88 499.755 87.3 501.088 85.9C502.488 84.5 503.788 82.8667 504.988 81C506.188 79.1333 507.255 77.2667 508.188 75.4C509.188 73.4667 509.955 71.9667 510.488 70.9C510.888 70.0333 511.322 69.7333 511.788 70C512.322 70.2 512.355 70.8 511.888 71.8C511.155 73.3333 510.222 75.1667 509.088 77.3C508.022 79.4333 506.788 81.5 505.388 83.5C503.988 85.4333 502.455 87.1 500.788 88.5C499.122 89.9 497.322 90.6 495.388 90.6C494.588 90.6 493.788 90.4 492.988 90C492.255 89.5333 491.555 88.8333 490.888 87.9C490.355 87.0333 489.922 85.7333 489.588 84C489.255 82.2667 489.388 80.6333 489.988 79.1C490.788 77.4333 491.488 75.9667 492.088 74.7C492.688 73.3667 493.288 72.1 493.888 70.9C494.488 69.7 495.122 68.4667 495.788 67.2C496.455 65.9333 497.222 64.5 498.088 62.9C499.355 60.5 500.455 58.8333 501.388 57.9C502.322 56.9667 503.588 56.5333 505.188 56.6C505.855 56.6667 506.522 56.8 507.188 57C507.922 57.1333 508.655 57.1333 509.388 57C508.655 57.4 507.755 58.2667 506.688 59.6C505.688 60.9333 504.622 62.5 503.488 64.3C502.422 66.1 501.322 68.0333 500.188 70.1C499.122 72.1 498.155 74 497.288 75.8ZM495.588 70.3C495.188 71.4333 494.488 72.5333 493.488 73.6C492.488 74.6 491.322 75.0333 489.988 74.9C488.788 74.8333 487.588 74.5 486.388 73.9C485.255 73.2333 484.122 72.8667 482.988 72.8C482.322 72.7333 481.722 72.9 481.188 73.3C480.655 73.6333 480.255 74.0667 479.988 74.6C479.922 74.7333 479.655 74.8 479.188 74.8C478.722 74.8 478.555 74.7 478.688 74.5C479.222 73.5 479.955 72.5 480.888 71.5C481.888 70.5 483.055 70.0667 484.388 70.2C485.655 70.2667 486.822 70.6 487.888 71.2C489.022 71.7333 490.155 72.0667 491.288 72.2C492.088 72.3333 492.722 72.2 493.188 71.8C493.655 71.4 494.055 70.9 494.388 70.3C494.522 70.1667 494.788 70.1 495.188 70.1C495.588 70.1 495.722 70.1667 495.588 70.3Z" fill="white"/>
<path d="M546.573 71.8C545.839 73.3333 544.906 75.1333 543.773 77.2C542.706 79.2667 541.506 81.2667 540.173 83.2C538.839 85.1333 537.406 86.8 535.873 88.2C534.406 89.5333 532.939 90.2667 531.473 90.4C530.673 90.4667 529.806 90.3333 528.873 90C527.939 89.6 527.173 88.9333 526.573 88C525.973 87 525.606 85.6667 525.473 84C525.406 82.2667 525.739 80.1 526.473 77.5C525.673 78.8333 524.639 80.4 523.373 82.2C522.106 83.9333 520.739 85.5 519.273 86.9C517.339 88.7667 515.539 89.8667 513.873 90.2C512.273 90.5333 510.906 90.3 509.773 89.5C508.639 88.6333 507.806 87.3 507.273 85.5C506.806 83.7 506.739 81.6 507.073 79.2C507.406 76.7333 508.206 74.0667 509.473 71.2C510.806 68.2667 512.739 65.3 515.273 62.3C516.739 60.5 518.506 58.9667 520.573 57.7C522.706 56.4333 524.839 55.5333 526.973 55C529.173 54.4667 531.273 54.4 533.273 54.8C535.339 55.2 537.073 56.1667 538.473 57.7C539.206 58.4333 539.406 59.1333 539.073 59.8C538.806 60.4667 538.239 60.7333 537.373 60.6C536.839 58.7333 535.739 57.6 534.073 57.2C532.473 56.8 530.739 57.1 528.873 58.1C526.606 59.3667 524.273 61.3333 521.873 64C519.473 66.6 517.373 69.4 515.573 72.4C515.373 72.7333 515.073 73.2667 514.673 74C514.273 74.7333 513.839 75.6 513.373 76.6C512.973 77.5333 512.573 78.5333 512.173 79.6C511.839 80.6 511.606 81.5667 511.473 82.5C511.206 84.2333 511.306 85.5 511.773 86.3C512.306 87.1 513.006 87.5 513.873 87.5C514.806 87.5 515.873 87.1333 517.073 86.4C518.273 85.6 519.473 84.5 520.673 83.1C522.406 80.9667 523.973 78.7333 525.373 76.4C526.839 74 528.239 71.5667 529.573 69.1C530.706 66.9667 531.706 65.3333 532.573 64.2C533.506 63.0667 534.773 62.5667 536.373 62.7C537.039 62.7667 537.706 62.9 538.373 63.1C539.106 63.2333 539.839 63.2333 540.573 63.1C540.039 63.6333 539.306 64.6333 538.373 66.1C537.506 67.5 536.573 69.1333 535.573 71C534.639 72.8 533.773 74.6667 532.973 76.6C532.173 78.5333 531.606 80.2667 531.273 81.8C530.473 85.8 530.806 87.8 532.273 87.8C533.339 87.8667 534.506 87.2333 535.773 85.9C537.039 84.5667 538.273 82.9667 539.473 81.1C540.739 79.2333 541.873 77.3667 542.873 75.5C543.873 73.5667 544.639 72.0667 545.173 71C545.639 70.1333 546.106 69.8 546.573 70C547.039 70.2 547.039 70.8 546.573 71.8Z" fill="white"/>
<path fill-rule="evenodd" clip-rule="evenodd" d="M119.147 86C120.347 84.7333 121.447 83.3667 122.447 81.9C123.514 80.3667 124.48 78.8333 125.347 77.3C124.68 79.3 124.347 81.1 124.347 82.7C124.347 84.3 124.547 85.6667 124.947 86.8C125.414 87.8667 126.08 88.7 126.947 89.3C127.814 89.8333 128.814 90.1 129.947 90.1C131.347 90.1 132.714 89.6333 134.047 88.7C135.38 87.7667 136.647 86.6667 137.847 85.4C139.047 84.0667 140.114 82.6667 141.047 81.2C142.047 79.7333 142.847 78.4333 143.447 77.3C142.78 79.3 142.447 81.1 142.447 82.7C142.447 84.3 142.647 85.6667 143.047 86.8C143.514 87.8667 144.18 88.7 145.047 89.3C145.914 89.8333 146.914 90.1 148.047 90.1C149.847 90.1 151.547 89.4667 153.147 88.2C154.747 86.9333 156.214 85.3667 157.547 83.5C158.88 81.6333 160.08 79.6667 161.147 77.6C162.214 75.4667 163.147 73.5333 163.947 71.8C164.414 70.8 164.38 70.2 163.847 70C163.38 69.7333 162.947 70.0333 162.547 70.9C161.68 72.7 160.714 74.6 159.647 76.6C158.647 78.5333 157.58 80.3333 156.447 82C155.314 83.6 154.114 84.9333 152.847 86C151.647 87.0667 150.447 87.6 149.247 87.6C148.514 87.5333 147.88 87.0667 147.347 86.2C146.88 85.2667 146.88 83.7333 147.347 81.6C147.48 80.7333 147.78 79.7 148.247 78.5C148.714 77.2333 149.247 75.9 149.847 74.5L151.847 70.1C152.58 68.5667 153.314 67.1 154.047 65.7C154.78 64.1667 155.414 62.9 155.947 61.9C156.48 60.8333 156.98 59.9667 157.447 59.3C157.98 58.5667 158.514 57.9667 159.047 57.5C159.58 56.9667 160.214 56.4 160.947 55.8H155.547C154.614 55.8 153.814 55.9667 153.147 56.3C152.547 56.5667 152.047 57.1 151.647 57.9C150.714 59.9 149.647 62.0667 148.447 64.4C147.314 66.7333 146.114 69.1 144.847 71.5C143.58 73.8333 142.247 76.1 140.847 78.3C139.514 80.5 138.147 82.4 136.747 84C135.814 85.0667 134.88 85.9333 133.947 86.6C133.014 87.2667 132.08 87.6 131.147 87.6C130.414 87.5333 129.78 87.0667 129.247 86.2C128.78 85.2667 128.78 83.7333 129.247 81.6C129.38 80.7333 129.68 79.7 130.147 78.5C130.614 77.2333 131.147 75.9 131.747 74.5L133.747 70.1C134.48 68.5667 135.214 67.1 135.947 65.7C136.68 64.1667 137.314 62.9 137.847 61.9C138.38 60.8333 138.88 59.9667 139.347 59.3C139.88 58.5667 140.414 57.9667 140.947 57.5C141.48 56.9667 142.114 56.4 142.847 55.8H137.447C136.514 55.8 135.714 55.9667 135.047 56.3C134.447 56.5667 133.947 57.1 133.547 57.9C132.614 59.9 131.547 62.0667 130.347 64.4C129.214 66.7333 128.014 69.1 126.747 71.5C125.48 73.8333 124.147 76.1 122.747 78.3C121.414 80.5 120.047 82.4 118.647 84C117.047 85.8667 115.614 87.0667 114.347 87.6C113.08 88.0667 112.114 87.9667 111.447 87.3C110.847 86.5667 110.614 85.3333 110.747 83.6C110.88 81.8667 111.547 79.7 112.747 77.1C113.214 76.1667 113.78 74.9667 114.447 73.5C115.114 72.0333 115.814 70.6 116.547 69.2C117.28 67.6 118.114 65.9333 119.047 64.2C119.714 62.8 120.314 61.6667 120.847 60.8C121.38 59.9333 121.88 59.2 122.347 58.6C122.88 58 123.38 57.5 123.847 57.1C124.314 56.6333 124.847 56.2 125.447 55.8H119.347C118.414 55.8 117.614 55.9667 116.947 56.3C116.347 56.5667 115.847 57.1 115.447 57.9C114.714 59.4333 113.847 61.1667 112.847 63.1L109.847 68.9C109.514 69.5 109.214 70.1 108.947 70.7C108.68 71.3 108.38 71.8667 108.047 72.4C107.714 73.0667 107.68 73.5 107.947 73.7C108.28 73.9 108.614 74 108.947 74C108.48 74.9333 107.98 75.8667 107.447 76.8C106.98 77.6667 106.547 78.6 106.147 79.6C105.814 80.5333 105.58 81.5 105.447 82.5C105.314 83.5 105.347 84.5333 105.547 85.6C105.747 86.5333 106.08 87.3 106.547 87.9C107.08 88.5 107.647 88.9667 108.247 89.3C108.847 89.6333 109.447 89.8667 110.047 90C110.714 90.0667 111.314 90.1 111.847 90.1C113.047 90.1 114.28 89.7333 115.547 89C116.814 88.2 118.014 87.2 119.147 86Z" fill="white"/>
<path fill-rule="evenodd" clip-rule="evenodd" d="M245.352 77.3C246.485 75.1667 247.418 73.3333 248.152 71.8C248.618 70.8 248.585 70.2 248.052 70C247.585 69.7333 247.152 70.0333 246.752 70.9C246.218 72.0333 245.452 73.6 244.452 75.6C243.452 77.5333 242.318 79.4333 241.052 81.3C239.785 83.1667 238.452 84.8 237.052 86.2C235.652 87.5333 234.318 88.2 233.052 88.2C232.385 88.2 231.852 87.9 231.452 87.3C231.052 86.6333 231.018 85.2667 231.352 83.2C231.552 82.3333 231.852 81.3 232.252 80.1C232.718 78.9 233.252 77.6333 233.852 76.3C234.452 74.9 235.085 73.4667 235.752 72C236.418 70.5333 237.118 69.1 237.852 67.7C239.518 64.4333 241.352 61 243.352 57.4C242.552 57.1333 241.352 57.2667 239.752 57.8C238.152 58.3333 236.452 59.1 234.652 60.1C232.852 61.0333 231.052 62.1333 229.252 63.4C227.518 64.6 226.052 65.7333 224.852 66.8C223.318 68.1333 221.785 69.6667 220.252 71.4C218.785 73.0667 217.552 74.5333 216.552 75.8C217.752 73.3333 219.018 70.9333 220.352 68.6C221.752 66.2 222.918 63.9333 223.852 61.8C224.318 60.8 224.418 59.9 224.152 59.1C223.885 58.3 223.285 57.7333 222.352 57.4C221.485 57.1333 220.452 57.2667 219.252 57.8C218.118 58.3333 216.885 59.1 215.552 60.1C214.285 61.0333 212.952 62.1333 211.552 63.4C210.218 64.6 208.952 65.7333 207.752 66.8C206.218 68.1333 204.685 69.6667 203.152 71.4C201.685 73.0667 200.452 74.5333 199.452 75.8C200.318 74 201.285 72.1 202.352 70.1C203.485 68.0333 204.585 66.1 205.652 64.3C206.785 62.5 207.852 60.9333 208.852 59.6C209.918 58.2667 210.818 57.4 211.552 57C210.818 57.1333 210.085 57.1333 209.352 57C208.685 56.8 208.018 56.6667 207.352 56.6C205.752 56.5333 204.485 56.9667 203.552 57.9C202.618 58.8333 201.518 60.5 200.252 62.9C197.785 67.4333 195.485 72 193.352 76.6C191.285 81.2 189.052 85.9 186.652 90.7C187.185 90.3667 187.685 90.2 188.152 90.2C188.618 90.2 189.218 90.1667 189.952 90.1C191.085 90.1 191.918 90.0333 192.452 89.9C192.985 89.7 193.418 89.2333 193.752 88.5C196.618 83.0333 199.185 78.8 201.452 75.8C203.785 72.8 205.818 70.5333 207.552 69C210.152 66.5333 211.985 65.0667 213.052 64.6C214.118 64.0667 214.652 64.1667 214.652 64.9C214.718 65.6333 214.418 66.8 213.752 68.4C213.085 70 212.352 71.6333 211.552 73.3C210.685 75.1667 209.852 77 209.052 78.8C208.252 80.5333 207.685 82.5 207.352 84.7C207.085 86.1667 207.252 87.4667 207.852 88.6C208.518 89.6667 209.418 90.2 210.552 90.2C210.885 88.7333 211.585 87 212.652 85C213.785 82.9333 215.052 80.9 216.452 78.9C217.852 76.8333 219.285 74.9333 220.752 73.2C222.285 71.4 223.585 70 224.652 69C226.585 67.2 228.152 65.9667 229.352 65.3C230.552 64.6333 231.418 64.3667 231.952 64.5C232.552 64.6333 232.818 65.0667 232.752 65.8C232.685 66.5333 232.352 67.4 231.752 68.4C230.352 70.6667 229.185 72.6667 228.252 74.4C227.318 76.0667 226.652 77.5667 226.252 78.9C225.518 81.2333 225.218 83.1667 225.352 84.7C225.485 86.1667 225.852 87.3667 226.452 88.3C227.118 89.1667 227.918 89.7667 228.852 90.1C229.785 90.4333 230.718 90.6 231.652 90.6C233.518 90.6 235.285 89.9 236.952 88.5C238.685 87.1 240.252 85.4333 241.652 83.5C243.052 81.5 244.285 79.4333 245.352 77.3Z" fill="white"/>
</svg>
