<svg width="560" height="199" viewBox="0 0 560 199" fill="none" xmlns="http://www.w3.org/2000/svg">
<path d="M82.7708 73.72C87.9708 69.04 95.4242 61.37 105.131 50.71L110.201 45.12C107.687 40.0067 104.567 36.1067 100.841 33.42C97.1142 30.6467 92.8675 29.26 88.1008 29.26C82.9875 29.26 78.5675 31.2967 74.8408 35.37C71.2008 39.3567 69.3808 44.21 69.3808 49.93C69.3808 54.61 70.4208 58.8567 72.5008 62.67C74.6675 66.3967 78.0908 70.08 82.7708 73.72ZM108.901 83.86C109.421 82.6467 109.941 81.13 110.461 79.31C111.067 77.49 111.587 75.5833 112.021 73.59C112.454 71.51 112.757 69.69 112.931 68.13C113.104 66.4833 113.191 64.6633 113.191 62.67C113.191 60.9367 113.191 59.16 113.191 57.34C112.931 55.9533 112.714 54.48 112.541 52.92C112.367 51.2733 111.891 49.28 111.111 46.94L103.571 55C95.9442 63.32 89.5742 69.9067 84.4608 74.76C87.5808 77.1867 91.1775 79.18 95.2508 80.74C99.3242 82.3 103.874 83.34 108.901 83.86ZM113.971 73.33C119.344 61.8033 125.801 50.4933 133.341 39.4C140.967 28.22 149.894 17.0833 160.121 5.99C153.361 8.76333 145.994 13.4433 138.021 20.03C130.134 26.6167 121.641 35.11 112.541 45.51C112.887 46.7233 113.234 48.0233 113.581 49.41C113.667 49.7567 113.884 51.0133 114.231 53.18C114.577 55.3467 114.794 56.9067 114.881 57.86C114.967 58.8133 115.011 60.33 115.011 62.41L114.751 67.48L113.971 73.33ZM104.481 94.65L106.431 89.71L108.121 85.68C103.874 85.3333 99.5408 84.3367 95.1208 82.69C93.1275 81.91 91.0908 81 89.0108 79.96C87.0175 78.92 84.9375 77.7067 82.7708 76.32C75.7508 82.4733 68.3408 87.0667 60.5408 90.1C52.7408 93.1333 44.6808 94.65 36.3608 94.65C25.2675 94.65 16.4275 92.2233 9.84082 87.37C3.34082 82.43 0.0908203 75.7567 0.0908203 67.35C0.0908203 59.1167 3.51415 52.0967 10.3608 46.29C17.2942 40.3967 25.4842 37.45 34.9308 37.45C42.3842 37.45 48.4508 39.27 53.1308 42.91C57.8975 46.4633 60.2808 51.0133 60.2808 56.56C60.2808 63.32 57.7675 68.8233 52.7408 73.07C47.7142 77.3167 41.1708 79.44 33.1108 79.44C31.1175 79.44 29.5575 79.31 28.4308 79.05C27.3042 78.79 26.6975 78.4433 26.6108 78.01L27.0008 77.75L27.7808 77.49L28.4308 77.62L32.5908 77.75C40.0442 77.75 46.1108 75.93 50.7908 72.29C55.4708 68.65 57.8108 64.0133 57.8108 58.38C57.8108 53.7867 55.9908 50.1033 52.3508 47.33C48.7108 44.47 43.7275 43.04 37.4008 43.04C28.2142 43.04 20.2842 45.77 13.6108 51.23C6.93749 56.6033 3.60082 63.0167 3.60082 70.47C3.60082 77.23 6.50415 82.6467 12.3108 86.72C18.1175 90.7933 26.0475 92.83 36.1008 92.83C44.5075 92.83 52.3942 91.4 59.7608 88.54C67.1275 85.5933 74.2342 81.0867 81.0808 75.02C75.6208 70.6 71.5042 65.92 68.7308 60.98C65.9575 56.04 64.5708 50.9267 64.5708 45.64C64.5708 39.66 66.4775 34.8067 70.2908 31.08C74.1042 27.2667 78.9142 25.36 84.7208 25.36C89.9208 25.36 94.9042 26.9633 99.6708 30.17C104.524 33.3767 108.511 37.8833 111.631 43.69C117.177 37.5367 122.421 32.12 127.361 27.44C132.301 22.76 136.851 18.8167 141.011 15.61C149.504 9.28333 158.517 4.08333 168.051 0.00999451C163.284 5.81666 158.821 11.71 154.661 17.69C150.501 23.5833 146.341 30.0833 142.181 37.19C134.381 50.5367 126.667 66.2667 119.041 84.38C122.074 84.38 124.891 83.8167 127.491 82.69C130.091 81.4767 132.604 79.7 135.031 77.36C135.551 76.84 135.941 76.4933 136.201 76.32C136.547 76.1467 136.894 75.9733 137.241 75.8L137.631 76.19C137.631 77.8367 135.681 79.9167 131.781 82.43C127.967 84.5967 123.417 85.94 118.131 86.46L114.881 93.22L104.481 94.65Z" fill="#EECF8E"/>
<path d="M166.093 95.04C169.733 87.5867 173.503 79.7867 177.403 71.64C181.389 63.4067 185.463 55.13 189.623 46.81C193.783 38.49 197.899 30.56 201.973 23.02C203.446 20.42 204.789 18.3833 206.003 16.91C207.303 15.4367 208.993 14.7 211.073 14.7C211.853 14.7 212.763 14.83 213.803 15.09C214.843 15.35 215.839 15.3933 216.793 15.22C215.666 16.4333 214.106 18.5567 212.113 21.59C210.206 24.6233 208.039 28.2633 205.613 32.51C203.273 36.7567 200.759 41.35 198.073 46.29C195.473 51.1433 192.873 56.0833 190.273 61.11C187.759 66.05 185.419 70.6867 183.253 75.02C184.986 72.7667 186.763 70.6433 188.583 68.65C190.403 66.6567 192.179 64.9233 193.913 63.45C195.819 61.7167 198.203 59.8967 201.063 57.99C204.009 56.0833 206.913 54.4367 209.773 53.05C212.719 51.6633 215.059 50.97 216.793 50.97C217.399 50.97 217.833 51.0133 218.093 51.1C218.093 51.1 217.616 51.9667 216.663 53.7C215.709 55.4333 214.496 57.6433 213.023 60.33C211.636 63.0167 210.163 65.92 208.603 69.04C207.129 72.16 205.829 75.15 204.703 78.01C203.576 80.7833 202.839 83.08 202.493 84.9C202.233 86.2867 202.103 87.4567 202.103 88.41C202.103 89.7967 202.363 90.75 202.883 91.27C203.403 91.7033 203.966 91.92 204.573 91.92C206.046 91.92 207.606 91.1833 209.253 89.71C210.986 88.15 212.676 86.2 214.323 83.86C215.969 81.52 217.486 79.05 218.873 76.45C220.346 73.7633 221.516 71.25 222.383 68.91C223.423 68.91 223.943 69.3 223.943 70.08C222.989 72.42 221.776 75.02 220.303 77.88C218.916 80.6533 217.313 83.2967 215.493 85.81C213.673 88.3233 211.679 90.4033 209.513 92.05C207.346 93.6967 205.049 94.52 202.623 94.52C200.889 94.52 199.113 93.9133 197.293 92.7C195.473 91.4867 194.563 89.2767 194.563 86.07C194.563 85.1167 194.649 84.12 194.823 83.08C194.996 81.9533 195.299 80.6967 195.733 79.31C196.253 77.5767 197.119 75.67 198.333 73.59C199.546 71.4233 201.106 68.7367 203.013 65.53C203.879 64.0567 204.313 62.8867 204.313 62.02C204.313 60.98 203.793 60.46 202.753 60.46C201.886 60.46 200.716 60.8933 199.243 61.76C197.769 62.6267 195.906 64.1433 193.653 66.31C191.486 68.39 188.799 71.4233 185.593 75.41C182.386 79.3967 178.963 84.9867 175.323 92.18C174.716 93.3067 174.023 93.9133 173.243 94C172.549 94 171.596 94.0433 170.383 94.13C169.603 94.2167 168.823 94.26 168.043 94.26C167.263 94.3467 166.613 94.6067 166.093 95.04Z" fill="#EECF8E"/>
<path d="M230.175 94C226.621 94 223.978 92.7433 222.245 90.23C220.598 87.63 219.775 84.51 219.775 80.87C219.775 77.49 220.425 73.98 221.725 70.34C223.111 66.3533 225.018 62.7133 227.445 59.42C229.958 56.1267 232.688 53.4833 235.635 51.49C238.668 49.41 241.658 48.37 244.605 48.37C248.158 48.37 250.758 49.5833 252.405 52.01C254.138 54.4367 255.005 57.5133 255.005 61.24C255.005 63.84 254.571 66.57 253.705 69.43C252.838 72.29 251.668 75.1067 250.195 77.88C251.321 79.0067 252.925 79.57 255.005 79.57C257.431 79.57 259.511 78.79 261.245 77.23C262.978 75.67 264.668 72.8967 266.315 68.91C267.355 68.91 267.875 69.3 267.875 70.08C266.228 74.0667 264.321 77.0133 262.155 78.92C260.075 80.74 257.388 81.6067 254.095 81.52C252.101 81.52 250.455 80.9567 249.155 79.83C246.728 83.8167 243.825 87.1967 240.445 89.97C237.151 92.6567 233.728 94 230.175 94ZM231.995 91.14C233.988 91.14 235.981 90.3167 237.975 88.67C239.968 86.9367 241.788 84.9867 243.435 82.82C245.081 80.6533 246.251 78.79 246.945 77.23C245.558 74.7167 244.735 72.8533 244.475 71.64C244.301 70.34 244.215 69.3867 244.215 68.78C244.215 67.1333 244.648 65.8767 245.515 65.01C246.381 64.1433 247.248 63.71 248.115 63.71C249.328 63.71 250.368 64.23 251.235 65.27C251.408 64.3167 251.538 63.45 251.625 62.67C251.711 61.8033 251.755 60.98 251.755 60.2C251.755 57.9467 251.321 56.1267 250.455 54.74C249.675 53.2667 248.418 52.53 246.685 52.53C244.865 52.53 242.958 53.31 240.965 54.87C238.971 56.43 237.065 58.51 235.245 61.11C233.511 63.71 231.995 66.6133 230.695 69.82C229.568 72.5067 228.701 75.0633 228.095 77.49C227.488 79.83 227.185 81.9967 227.185 83.99C227.185 86.1567 227.575 87.89 228.355 89.19C229.135 90.49 230.348 91.14 231.995 91.14Z" fill="#EECF8E"/>
<path d="M293.21 25.36C292.084 27.0067 290.827 29.0867 289.44 31.6C288.054 34.1133 286.754 36.54 285.54 38.88C284.414 41.22 283.547 42.9967 282.94 44.21H294.9C294.9 44.5567 294.727 45.12 294.38 45.9C294.12 46.68 293.557 47.2433 292.69 47.59H281.38C280.34 49.93 279.127 52.7467 277.74 56.04C276.44 59.3333 275.14 62.7567 273.84 66.31C272.627 69.8633 271.587 73.2 270.72 76.32C269.94 79.3533 269.55 81.8233 269.55 83.73C269.55 86.33 269.897 88.28 270.59 89.58C271.284 90.7933 272.54 91.4 274.36 91.4C276.7 91.4 278.954 90.2733 281.12 88.02C283.287 85.68 285.324 82.7767 287.23 79.31C289.224 75.8433 290.957 72.3767 292.43 68.91C293.47 68.91 293.99 69.3 293.99 70.08C293.037 72.42 291.867 74.9767 290.48 77.75C289.094 80.5233 287.49 83.21 285.67 85.81C283.937 88.3233 281.944 90.4033 279.69 92.05C277.524 93.61 275.097 94.39 272.41 94.39C268.77 94.39 266.3 93.3933 265 91.4C263.7 89.32 263.05 86.6767 263.05 83.47C263.05 81.13 263.484 78.3133 264.35 75.02C265.217 71.64 266.257 68.1733 267.47 64.62C268.77 61.0667 270.027 57.7733 271.24 54.74C272.454 51.62 273.407 49.2367 274.1 47.59H265.78C265.78 46.8967 266.084 46.16 266.69 45.38C267.297 44.6 267.947 44.21 268.64 44.21H275.53C276.224 42.8233 277.004 41.09 277.87 39.01C278.824 36.93 280.08 34.6333 281.64 32.12C282.94 30.04 284.587 28.3933 286.58 27.18C288.66 25.9667 290.87 25.36 293.21 25.36Z" fill="#EECF8E"/>
<path fill-rule="evenodd" clip-rule="evenodd" d="M138.064 91.27C140.318 93.4367 143.221 94.52 146.774 94.52C149.114 94.52 151.281 94.3033 153.274 93.87C154.661 94.2167 156.178 94.39 157.824 94.39C161.724 94.39 165.018 93.1767 167.704 90.75C170.391 88.3233 172.731 85.2467 174.724 81.52C176.718 77.7933 178.538 73.98 180.184 70.08C180.184 69.3 179.664 68.91 178.624 68.91C175.678 75.8433 172.688 81.4767 169.654 85.81C166.708 90.0567 162.938 92.18 158.344 92.18H158.214C160.814 90.88 162.894 88.9733 164.454 86.46C166.101 83.86 166.924 80.48 166.924 76.32C166.924 74.24 166.534 72.3333 165.754 70.6C164.974 68.78 164.064 67.0033 163.024 65.27C161.984 63.5367 161.074 61.76 160.294 59.94C159.514 58.0333 159.124 55.91 159.124 53.57C159.124 51.4033 159.688 49.3667 160.814 47.46C161.941 45.5533 163.328 44.6 164.974 44.6C165.408 44.6 165.971 44.7733 166.664 45.12C167.444 45.4667 168.138 45.64 168.744 45.64C169.524 45.64 169.914 45.2933 169.914 44.6C169.914 43.6467 169.308 43.04 168.094 42.78C166.881 42.4333 165.928 42.26 165.234 42.26C162.374 42.26 159.861 43.3433 157.694 45.51C157.684 45.563 157.586 45.7117 157.441 45.9341C157.061 46.5134 156.354 47.593 156 48.7838C155.506 50.4462 155.42 52.3055 155.381 53.1447C155.371 53.3615 155.364 53.5103 155.354 53.57V55.13C155.354 57.0367 155.614 59.2033 156.134 61.63C156.741 64.0567 157.304 66.5267 157.824 69.04C158.344 71.5533 158.604 74.0233 158.604 76.45C158.604 79.3967 157.954 82.2567 156.654 85.03C155.441 87.7167 153.708 89.71 151.454 91.01C150.201 91.733 147.121 92.44 146.254 92.44C144.348 92.44 142.918 91.92 141.964 90.88C141.011 89.84 140.534 88.6267 140.534 87.24C140.534 86.3733 140.708 85.5067 141.054 84.64C141.165 84.3359 141.452 83.9083 141.792 83.4014C142.518 82.3193 143.486 80.8756 143.5 79.5C143.5 76.8133 142.008 76.45 140.274 76.19C138.628 76.19 137.328 77.0567 136.374 78.79C135.334 80.4367 134.814 82.2567 134.814 84.25C134.814 86.6767 135.898 89.0167 138.064 91.27Z" fill="#EECF8E"/>
<path d="M369.643 153.15C376.75 140.93 383.64 131.137 390.313 123.77C393.693 120.13 397.073 117.053 400.453 114.54C403.833 111.94 407.343 109.86 410.983 108.3C395.297 109.86 382.817 113.717 373.543 119.87C364.27 125.937 359.633 133.217 359.633 141.71C359.633 145.263 360.457 147.95 362.103 149.77C363.837 151.59 366.35 152.717 369.643 153.15ZM378.223 155.88C371.723 169.573 363.187 180.103 352.613 187.47C342.127 194.75 330.253 198.39 316.993 198.39C306.68 198.39 298.317 195.92 291.903 190.98C285.49 185.953 282.283 179.497 282.283 171.61C282.283 163.377 285.75 156.27 292.683 150.29C299.703 144.31 308.283 141.32 318.423 141.32C325.877 141.32 331.987 143.313 336.753 147.3C341.607 151.287 344.033 156.227 344.033 162.12C344.033 168.273 341.347 173.43 335.973 177.59C330.687 181.75 324.143 183.83 316.343 183.83C312.183 183.83 308.457 183.223 305.163 182.01C301.87 180.97 300.137 179.887 299.963 178.76L300.223 178.37L302.693 179.15C307.373 181.143 311.837 182.14 316.083 182.14C323.363 182.14 329.473 180.277 334.413 176.55C339.44 172.737 341.953 168.273 341.953 163.16C341.953 158.047 340.177 154.06 336.623 151.2C333.07 148.253 328.087 146.78 321.673 146.78C311.793 146.78 303.473 149.467 296.713 154.84C290.04 160.127 286.703 166.453 286.703 173.82C286.703 180.58 289.39 186.083 294.763 190.33C300.223 194.49 307.46 196.57 316.473 196.57C327.22 196.57 336.753 193.32 345.073 186.82C353.393 180.32 361.107 170.007 368.213 155.88C363.533 155.36 359.937 153.757 357.423 151.07C354.91 148.383 353.653 145.003 353.653 140.93C353.653 135.47 356.123 130.27 361.063 125.33C366.003 120.303 372.807 116.273 381.473 113.24C384.853 112.113 387.8 111.203 390.313 110.51C392.913 109.817 395.947 109.123 399.413 108.43C405.913 107.217 411.417 106.61 415.923 106.61L417.483 106.74L418.133 107L415.273 108.17C413.28 108.863 411.547 109.687 410.073 110.64C405.307 113.673 400.843 117.963 396.683 123.51C392.523 128.97 386.89 138.85 379.783 153.15C384.117 152.457 388.017 150.593 391.483 147.56L396.683 142.88L396.943 143.14C396.943 145.047 395.037 147.387 391.223 150.16C387.497 152.933 383.163 154.84 378.223 155.88Z" fill="#EECF8E"/>
<path d="M379.424 198L396.324 172.78L396.844 172C399.27 168.447 400.484 166.107 400.484 164.98C400.484 164.46 400.31 164.07 399.964 163.81C399.704 163.463 399.27 163.29 398.664 163.29C397.45 163.29 395.63 164.157 393.204 165.89C391.384 167.45 388.134 170.657 383.454 175.51L380.334 179.15C378.86 180.797 377.864 181.707 377.344 181.88L376.954 181.75L376.694 181.36L377.344 179.93L379.684 177.07L383.844 172.52C388.09 168.013 391.254 165.023 393.334 163.55C395.414 161.99 397.364 161.21 399.184 161.21C400.657 161.21 401.87 161.773 402.824 162.9C403.777 163.94 404.254 165.24 404.254 166.8C404.254 168.793 403.864 170.873 403.084 173.04C402.304 175.207 400.614 178.5 398.014 182.92L409.194 172.52C413.354 168.5 413.744 168.447 415.304 166.8C416.864 165.153 417.774 164.777 419 164.5C419.953 164.5 420.5 164.5 420.5 165C420.5 166 419.5 166.5 415.5 170L413.5 172C412 173.5 410.147 175.38 409.194 176.94C408.414 178.5 408.024 180.233 408.024 182.14C408.024 183.18 408.327 184.047 408.934 184.74C409.627 185.347 410.407 185.65 411.274 185.65C413.354 185.65 415.52 184.61 417.774 182.53L421.154 179.41L421.674 179.67L421.934 180.06C421.934 181.1 420.677 182.573 418.164 184.48C415.737 186.387 413.527 187.34 411.534 187.34C409.714 187.34 408.327 186.907 407.374 186.04C406.507 185.087 406.074 183.83 406.074 182.27L406.464 179.8L407.764 176.03C406.29 177.33 404.904 178.587 403.604 179.8C402.39 181.013 400.917 182.573 399.184 184.48C396.064 187.86 392.51 192.063 388.524 197.09L379.424 198Z" fill="#EECF8E"/>
<path d="M432.084 169.53L424.674 177.46C422.074 180.32 420.557 181.75 420.124 181.75L419.604 181.36C419.604 180.927 421.034 179.02 423.894 175.64C424.934 174.427 426.667 172.52 429.094 169.92C431 167.927 433.34 165.457 436.114 162.51L445.474 161.86L432.604 182.14L427.274 190.85C426.841 191.803 426.537 192.497 426.364 192.93C426.277 193.363 426.234 193.84 426.234 194.36C426.234 195.053 426.451 195.66 426.884 196.18C427.317 196.613 427.837 196.83 428.444 196.83C430.09 196.83 432.04 196.007 434.294 194.36C435.334 193.58 436.677 192.41 438.324 190.85C440.057 189.203 441.834 187.427 443.654 185.52L446.514 182.4C448.074 180.493 449.114 179.54 449.634 179.54L450.154 179.67L450.414 180.19C450.327 180.45 450.24 180.71 450.154 180.97C450.067 181.23 449.807 181.577 449.374 182.01L444.434 187.34C442.094 189.68 440.144 191.543 438.584 192.93C437.11 194.317 435.767 195.443 434.554 196.31C432.3 197.87 430.307 198.65 428.574 198.65C426.494 198.65 424.76 197.913 423.374 196.44C422.16 194.967 421.554 192.973 421.554 190.46C421.554 187.167 424.544 180.97 430.524 171.87L432.084 169.53ZM448.074 141.45C448.074 139.977 448.637 138.677 449.764 137.55C450.804 136.25 452.017 135.6 453.404 135.6C454.444 135.6 455.267 135.947 455.874 136.64C456.567 137.333 456.914 138.243 456.914 139.37C456.914 140.757 456.394 142.1 455.354 143.4C454.314 144.613 453.101 145.22 451.714 145.22C450.674 145.22 449.807 144.873 449.114 144.18C448.42 143.487 448.074 142.577 448.074 141.45Z" fill="#EECF8E"/>
<path d="M450.898 198.13L468.578 171.61C470.832 168.317 471.958 166.107 471.958 164.98C471.958 164.46 471.785 164.07 471.438 163.81C471.178 163.463 470.745 163.29 470.138 163.29C468.925 163.29 467.105 164.157 464.678 165.89C462.858 167.45 459.608 170.657 454.928 175.51L451.808 179.15C450.335 180.797 449.338 181.707 448.818 181.88L448.428 181.75L448.168 181.36L448.818 179.93L451.158 177.07L455.318 172.52C459.565 168.013 462.728 165.023 464.808 163.55C466.888 161.99 468.838 161.21 470.658 161.21C472.132 161.21 473.345 161.773 474.298 162.9C475.252 164.027 475.728 165.5 475.728 167.32C475.728 169.4 475.295 171.48 474.428 173.56C473.562 176.073 472.262 178.673 470.528 181.36C477.548 173.56 482.618 168.36 485.738 165.76C489.205 162.813 492.022 161.34 494.188 161.34C495.575 161.34 496.788 161.903 497.828 163.03C498.695 164.33 499.128 165.847 499.128 167.58C499.128 170.96 496.962 175.51 492.628 181.23L491.068 183.44L486.258 190.59C485.478 192.15 485.088 193.407 485.088 194.36C485.088 195.14 485.218 195.747 485.478 196.18C485.825 196.527 486.388 196.7 487.168 196.7C488.208 196.7 489.985 195.747 492.498 193.84C495.012 191.933 497.915 189.203 501.208 185.65L504.718 181.75C505.412 181.057 505.888 180.58 506.148 180.32C506.495 179.973 506.842 179.713 507.188 179.54L507.708 179.8L507.968 180.19C507.968 180.883 506.105 183.137 502.378 186.95L501.598 187.73C501.165 188.163 499.908 189.377 497.828 191.37C495.748 193.363 493.972 194.88 492.498 195.92C490.158 197.74 488.338 198.65 487.038 198.65C485.218 198.65 483.702 197.783 482.488 196.05C481.362 194.317 480.798 192.107 480.798 189.42C480.798 187.513 481.318 185.433 482.358 183.18C483.485 180.927 485.738 177.677 489.118 173.43L491.068 170.96C493.582 167.927 494.838 165.89 494.838 164.85C494.838 164.243 494.752 163.853 494.578 163.68L493.408 163.42C491.328 163.42 487.298 166.41 481.318 172.39C475.425 178.37 468.318 186.647 459.998 197.22L450.898 198.13Z" fill="#EECF8E"/>
<path d="M513.735 192.28C513.735 193.58 513.952 194.533 514.385 195.14C514.905 195.747 515.728 196.137 516.855 196.31C518.242 196.31 520.018 195.617 522.185 194.23C524.352 192.757 526.605 190.72 528.945 188.12C532.238 184.567 534.882 180.883 536.875 177.07C538.955 173.17 539.995 169.92 539.995 167.32C539.995 166.193 539.562 165.24 538.695 164.46C537.915 163.68 536.918 163.29 535.705 163.29C533.625 163.29 531.328 164.2 528.815 166.02C526.388 167.84 523.918 170.44 521.405 173.82C520.365 175.293 519.368 176.897 518.415 178.63C517.462 180.277 516.595 182.01 515.815 183.83C514.428 187.47 513.735 190.287 513.735 192.28ZM541.555 170.18L546.885 162.38L555.465 161.86L541.165 184.35L537.135 191.24C536.788 192.02 536.528 193.103 536.355 194.49C536.355 195.097 536.442 195.573 536.615 195.92C536.875 196.18 537.438 196.397 538.305 196.57C539.432 196.57 541.122 195.703 543.375 193.97C545.628 192.237 548.618 189.42 552.345 185.52L555.855 181.75C556.548 181.057 557.025 180.58 557.285 180.32C557.632 179.973 557.978 179.713 558.325 179.54L558.845 179.67L559.105 180.06C558.932 180.407 558.802 180.667 558.715 180.84C558.368 181.533 558.022 182.097 557.675 182.53L553.125 187.34C548.445 192.107 545.022 195.183 542.855 196.57C540.775 197.957 538.782 198.65 536.875 198.65C535.055 198.65 533.712 198.13 532.845 197.09C531.978 196.05 531.545 194.403 531.545 192.15L531.675 190.33L532.195 187.21C529.162 191.023 526.258 193.883 523.485 195.79C520.798 197.697 518.242 198.65 515.815 198.65C513.562 198.65 511.698 197.48 510.225 195.14C508.925 192.54 508.275 189.29 508.275 185.39L508.535 182.27C508.708 180.883 508.925 179.887 509.185 179.28L507.625 181.23L506.455 181.88L505.935 181.75L505.675 181.36C505.848 181.1 505.978 180.883 506.065 180.71C506.498 180.017 506.932 179.41 507.365 178.89L511.785 174.08C515.685 170.18 519.715 167.103 523.875 164.85C528.035 162.51 531.805 161.34 535.185 161.34C537.265 161.34 538.912 161.903 540.125 163.03C541.425 164.157 542.075 165.587 542.075 167.32L541.945 168.62L541.555 170.18Z" fill="#EECF8E"/>
</svg>
