<svg width="530" height="107" viewBox="0 0 530 107" fill="none" xmlns="http://www.w3.org/2000/svg">
<path d="M168.833 72.7C168.033 74.4333 167.066 76.4 165.933 78.6C164.866 80.7333 163.633 82.7667 162.233 84.7C160.899 86.5667 159.433 88.1667 157.833 89.5C156.233 90.7667 154.499 91.4 152.633 91.4C151.766 91.4 150.866 91.2333 149.933 90.9C148.999 90.5667 148.199 89.9667 147.533 89.1C146.933 88.1667 146.566 86.9667 146.433 85.5C146.299 83.9667 146.599 82.0333 147.333 79.7C147.733 78.3667 148.399 76.8667 149.333 75.2C150.266 73.4667 151.433 71.4667 152.833 69.2C153.433 68.2 153.766 67.3333 153.833 66.6C153.899 65.8667 153.633 65.4333 153.033 65.3C152.499 65.1667 151.633 65.4333 150.433 66.1C149.233 66.7667 147.666 68 145.733 69.8C143.999 71.3333 141.933 73.6333 139.533 76.7C137.199 79.7667 134.599 84.0667 131.733 89.6C131.399 90.3333 130.966 90.7667 130.433 90.9C129.899 91.0333 129.099 91.1 128.033 91.1C127.299 91.1667 126.699 91.2 126.233 91.2C125.699 91.2 125.166 91.3667 124.633 91.7C125.312 90.274 126.002 88.8249 126.705 87.3528C128.07 84.4891 129.48 81.5381 130.933 78.5C131.773 76.7958 132.612 75.0871 133.452 73.3737C134.879 70.4624 136.306 67.5378 137.733 64.6C140.066 59.8667 142.433 55.1333 144.833 50.4C147.299 45.6667 149.733 41.0667 152.133 36.6C153.266 34.4667 154.333 32.8667 155.333 31.8C156.333 30.6667 157.633 30.1667 159.233 30.3C159.899 30.3667 160.566 30.5 161.233 30.7C161.966 30.8333 162.699 30.8333 163.433 30.7C162.699 31.4333 161.733 32.7 160.533 34.5C159.399 36.3 158.099 38.4333 156.633 40.9C155.233 43.3 153.699 46 152.033 49C150.433 51.9333 148.799 54.9667 147.133 58.1C145.466 61.2333 143.833 64.3667 142.233 67.5C140.633 70.6333 139.166 73.6 137.833 76.4C139.166 74.6667 140.499 73.0667 141.833 71.6C143.233 70.0667 144.599 68.7333 145.933 67.6C147.133 66.5333 148.599 65.4 150.333 64.2C152.133 62.9333 153.933 61.8333 155.733 60.9C157.533 59.9 159.199 59.1333 160.733 58.6C162.333 58.0667 163.566 57.9333 164.433 58.2C162.433 61.8 160.599 65.2333 158.933 68.5C158.199 69.9 157.466 71.3333 156.733 72.8C156.066 74.2667 155.433 75.7 154.833 77.1C154.233 78.4333 153.699 79.7 153.233 80.9C152.833 82.1 152.566 83.1333 152.433 84C152.033 86.0667 151.999 87.4667 152.333 88.2C152.733 88.8667 153.266 89.2333 153.933 89.3C155.066 89.3667 156.299 88.7 157.633 87.3C159.033 85.9 160.366 84.2333 161.633 82.3C162.899 80.3 164.033 78.3 165.033 76.3C166.099 74.3 166.899 72.7667 167.433 71.7C167.899 70.7667 168.366 70.4333 168.833 70.7C169.366 70.9667 169.366 71.6333 168.833 72.7Z" fill="white"/>
<path d="M202.636 72.2C202.236 73.1333 201.569 74.6 200.636 76.6C199.769 78.6 198.669 80.6 197.336 82.6C196.003 84.6 194.436 86.3667 192.636 87.9C190.903 89.4333 189.003 90.2 186.936 90.2C185.403 90.2 184.103 89.9667 183.036 89.5C182.036 88.9667 181.203 88.3333 180.536 87.6C179.136 88.6667 177.703 89.5333 176.236 90.2C174.769 90.8 173.303 91.0667 171.836 91C169.903 90.9333 168.369 90.3667 167.236 89.3C166.169 88.2333 165.436 86.8667 165.036 85.2C164.703 83.4667 164.703 81.5333 165.036 79.4C165.369 77.2 166.003 75 166.936 72.8C167.936 70.5333 169.169 68.3667 170.636 66.3C172.103 64.2333 173.669 62.4333 175.336 60.9C177.069 59.3667 178.836 58.1667 180.636 57.3C182.436 56.3667 184.203 55.9333 185.936 56C187.803 56 189.303 56.5333 190.436 57.6C191.569 58.6667 192.303 60.0667 192.636 61.8C193.036 63.5333 193.069 65.5 192.736 67.7C192.403 69.8333 191.769 72 190.836 74.2C190.103 75.9333 189.003 77.9 187.536 80.1C186.069 82.2333 184.369 84.2 182.436 86C183.303 87.6667 184.869 88.5 187.136 88.5C188.736 88.5 190.236 87.8333 191.636 86.5C193.103 85.1667 194.436 83.5667 195.636 81.7C196.836 79.8333 197.903 77.9333 198.836 76C199.769 74.0667 200.536 72.5 201.136 71.3C201.403 70.7667 201.803 70.6 202.336 70.8C202.869 71 202.969 71.4667 202.636 72.2ZM188.036 59.3C186.969 59.0333 185.803 59.2 184.536 59.8C183.269 60.3333 182.003 61.2333 180.736 62.5C179.469 63.7 178.236 65.1667 177.036 66.9C175.836 68.5667 174.769 70.4 173.836 72.4C172.836 74.4667 172.036 76.4333 171.436 78.3C170.903 80.1 170.569 81.7333 170.436 83.2C170.303 84.6667 170.403 85.9 170.736 86.9C171.069 87.8333 171.703 88.4333 172.636 88.7C173.569 88.9667 174.636 88.8667 175.836 88.4C177.036 87.9333 178.236 87.2 179.436 86.2C178.903 85.4 178.503 84.5667 178.236 83.7C177.969 82.8333 177.836 82.0333 177.836 81.3C177.903 80.1667 178.169 79.1667 178.636 78.3C179.169 77.4333 180.069 77 181.336 77C182.203 77 182.903 77.3 183.436 77.9C184.036 78.5 184.336 79.2 184.336 80C184.336 80.2 184.303 80.4 184.236 80.6C184.236 80.7333 184.203 80.9 184.136 81.1C185.269 79.4333 186.303 77.6333 187.236 75.7C188.236 73.6333 189.003 71.6667 189.536 69.8C190.069 67.9333 190.369 66.2667 190.436 64.8C190.503 63.3333 190.336 62.1333 189.936 61.2C189.536 60.2 188.903 59.5667 188.036 59.3Z" fill="white"/>
<path d="M438.467 10.5C438.467 11.5 438.234 12.3667 437.767 13.1C437.367 13.8333 436.801 14.5 436.067 15.1C435.334 15.6333 434.501 16.1 433.567 16.5C432.634 16.8333 431.701 17.1667 430.767 17.5C430.167 17.5 429.434 17.6667 428.567 18C427.701 18.2667 427.034 18.4 426.567 18.4C424.501 22.1333 422.767 25.8 421.367 29.4C419.967 33 418.701 36.5667 417.567 40.1C416.434 43.5667 415.334 47.0333 414.267 50.5C413.201 53.9667 411.967 57.4 410.567 60.8C409.234 64.2 407.667 67.6 405.867 71C404.067 74.3333 401.834 77.7 399.167 81.1C393.634 88.1667 387.467 93.7 380.667 97.7C373.934 101.767 366.934 104.4 359.667 105.6C352.601 106.8 346.067 106.933 340.067 106C334.134 105.067 329.234 103.167 325.367 100.3C321.501 97.5 318.934 93.8 317.667 89.2C316.401 84.5333 316.934 79.0667 319.267 72.8C319.867 71.1333 320.767 69.5333 321.967 68C323.234 66.4667 324.534 65.1 325.867 63.9C327.201 62.6333 328.501 61.6333 329.767 60.9C331.101 60.1667 332.167 59.7667 332.967 59.7C334.034 59.6333 334.434 59.8 334.167 60.2C333.901 60.5333 333.534 60.8333 333.067 61.1C332.201 61.5 331.167 62.1667 329.967 63.1C328.834 64.0333 327.667 65.2 326.467 66.6C325.334 68 324.267 69.6 323.267 71.4C322.267 73.2 321.501 75.1333 320.967 77.2C320.101 80.8 320.034 84.0333 320.767 86.9C321.501 89.7667 322.767 92.2333 324.567 94.3C326.434 96.3667 328.701 98.0667 331.367 99.4C334.034 100.8 336.867 101.833 339.867 102.5C342.934 103.167 346.001 103.467 349.067 103.4C352.201 103.4 355.101 103.067 357.767 102.4C362.634 101.2 367.134 99.4333 371.267 97.1C375.401 94.7667 379.201 92.1 382.667 89.1C386.134 86.1 389.234 82.9 391.967 79.5C394.767 76.1 397.234 72.7 399.367 69.3C401.501 65.9 403.301 62.6333 404.767 59.5C406.301 56.3667 407.534 53.6 408.467 51.2C409.934 47.2667 411.434 43.5667 412.967 40.1C414.567 36.5667 416.034 33.4 417.367 30.6C418.767 27.7333 420.001 25.3 421.067 23.3C422.134 21.3 422.934 19.8333 423.467 18.9C418.934 19.9 414.067 21.1 408.867 22.5C403.734 23.9 398.834 25.8 394.167 28.2C389.501 30.5333 385.401 33.5333 381.867 37.2C378.334 40.8 375.967 45.3 374.767 50.7C374.234 53.1 374.134 55.3 374.467 57.3C374.801 59.2333 375.501 60.8 376.567 62C377.634 63.2 379.001 63.9667 380.667 64.3C382.401 64.6333 384.334 64.4 386.467 63.6C389.067 62.5333 391.034 61.1 392.367 59.3C393.767 57.5 394.701 55.7 395.167 53.9C395.701 52.0333 395.867 50.3667 395.667 48.9C395.534 47.4333 395.267 46.5 394.867 46.1C394.734 45.9667 394.734 45.7667 394.867 45.5C395.001 45.2333 395.201 45 395.467 44.8C395.734 44.6 396.001 44.5 396.267 44.5C396.534 44.5 396.767 44.7333 396.967 45.2C397.967 47.0667 398.367 49.0667 398.167 51.2C397.967 53.2667 397.334 55.2667 396.267 57.2C395.267 59.1333 393.901 60.8667 392.167 62.4C390.501 63.9333 388.634 65.1 386.567 65.9C383.901 66.9 381.301 67.2333 378.767 66.9C376.301 66.5667 374.167 65.7 372.367 64.3C370.567 62.8333 369.234 60.9333 368.367 58.6C367.501 56.2667 367.401 53.6333 368.067 50.7C368.934 46.7667 370.501 43.2667 372.767 40.2C375.034 37.1333 377.734 34.4 380.867 32C384.067 29.6 387.567 27.5667 391.367 25.9C395.234 24.1667 399.134 22.6667 403.067 21.4C407.001 20.1333 410.867 19.1 414.667 18.3C418.467 17.5 421.934 16.8333 425.067 16.3C425.267 15.9 425.634 15.3 426.167 14.5C426.701 13.7 427.301 12.8667 427.967 12C428.701 11.1333 429.467 10.3333 430.267 9.59999C431.134 8.86666 431.967 8.36666 432.767 8.09999C434.301 7.63332 435.601 7.59999 436.667 7.99999C437.801 8.33332 438.401 9.16666 438.467 10.5ZM433.667 10.9C433.401 10.8333 433.034 10.9667 432.567 11.3C432.167 11.5667 431.701 11.9667 431.167 12.5C430.634 13.0333 430.101 13.6333 429.567 14.3C429.101 14.9 428.667 15.4333 428.267 15.9C430.467 15.4333 432.034 14.9333 432.967 14.4C433.901 13.8 434.467 13.2667 434.667 12.8C434.867 12.2667 434.801 11.8333 434.467 11.5C434.201 11.1 433.934 10.9 433.667 10.9Z" fill="white"/>
<path d="M457.155 49.2C456.955 50.3333 456.388 51.3 455.455 52.1C454.521 52.9 453.488 53.3 452.355 53.3C451.221 53.3 450.321 52.9 449.655 52.1C448.988 51.3 448.721 50.3333 448.855 49.2C449.055 48.0667 449.621 47.1 450.555 46.3C451.488 45.5 452.521 45.1 453.655 45.1C454.788 45.1 455.688 45.5 456.355 46.3C457.088 47.1 457.355 48.0667 457.155 49.2ZM443.055 82.5C442.588 84.1667 442.455 85.6 442.655 86.8C442.921 88 443.755 88.6667 445.155 88.8C445.888 88.9333 446.688 88.8 447.555 88.4C448.421 87.9333 449.121 87.4333 449.655 86.9C451.321 85.2333 452.955 83 454.555 80.2C456.155 77.4 457.655 74.6 459.055 71.8C459.455 70.8667 459.888 70.5333 460.355 70.8C460.821 71.0667 460.821 71.7 460.355 72.7C459.688 74.1 458.855 75.8333 457.855 77.9C456.855 79.9667 455.655 82 454.255 84C452.921 85.9333 451.455 87.6 449.855 89C448.255 90.3333 446.521 91 444.655 91C442.788 91 441.355 90.5667 440.355 89.7C439.355 88.8333 438.688 87.7667 438.355 86.5C438.021 85.1667 437.955 83.7667 438.155 82.3C438.173 82.1634 438.192 82.0277 438.212 81.8927C438.421 80.5121 438.769 79.2146 439.255 78L441.205 73.0339L445.655 61.7C446.055 60.7667 446.021 59.9 445.555 59.1C445.155 58.3 444.855 57.7667 444.655 57.5L450.155 57.4C451.755 57.4 452.621 57.7 452.755 58.3C452.955 58.8333 452.788 59.7 452.255 60.9L444.255 79.6C444.121 80.0667 443.955 80.4667 443.755 80.8C443.621 81.1333 443.488 81.4667 443.355 81.8C443.221 82.1333 443.121 82.3667 443.055 82.5Z" fill="white"/>
<path d="M494.038 72.6C493.304 74.1333 492.371 75.9667 491.237 78.1C490.171 80.2333 488.938 82.3 487.538 84.3C486.138 86.2333 484.604 87.9 482.938 89.3C481.271 90.7 479.471 91.4 477.538 91.4C476.671 91.4 475.771 91.2333 474.837 90.9C473.904 90.5667 473.104 89.9667 472.438 89.1C471.837 88.1667 471.471 86.9667 471.337 85.5C471.204 83.9667 471.504 82.0333 472.237 79.7C472.637 78.3667 473.304 76.8667 474.237 75.2C475.171 73.4667 476.337 71.4667 477.737 69.2C478.337 68.2 478.671 67.3333 478.737 66.6C478.804 65.8667 478.538 65.4333 477.938 65.3C477.404 65.1667 476.537 65.4333 475.337 66.1C474.137 66.7667 472.571 68 470.638 69.8C468.904 71.3333 466.838 73.6333 464.438 76.7C462.104 79.7667 459.537 84.0667 456.737 89.6C456.337 90.3333 455.871 90.7667 455.337 90.9C454.804 91.0333 454.004 91.1 452.938 91.1C452.204 91.1667 451.604 91.2 451.138 91.2C450.604 91.2 450.071 91.3667 449.538 91.7C451.938 86.9 454.204 82.1667 456.337 77.5C458.537 72.8333 460.871 68.2333 463.337 63.7C464.604 61.3 465.704 59.6333 466.638 58.7C467.571 57.7667 468.838 57.3333 470.438 57.4C471.104 57.4667 471.771 57.6 472.438 57.8C473.171 57.9333 473.904 57.9333 474.638 57.8C473.904 58.2 473.004 59.0667 471.938 60.4C470.938 61.7333 469.871 63.3 468.737 65.1C467.671 66.9 466.571 68.8333 465.438 70.9C464.371 72.9 463.404 74.8 462.538 76.6C463.538 75.3333 464.771 73.8667 466.237 72.2C467.771 70.4667 469.304 68.9333 470.837 67.6C472.037 66.5333 473.504 65.4 475.237 64.2C477.037 62.9333 478.838 61.8333 480.638 60.9C482.438 59.9 484.104 59.1333 485.638 58.6C487.238 58.0667 488.471 57.9333 489.337 58.2C487.337 61.8 485.504 65.2333 483.837 68.5C483.104 69.9 482.371 71.3333 481.638 72.8C480.971 74.2667 480.337 75.7 479.737 77.1C479.137 78.4333 478.604 79.7 478.138 80.9C477.738 82.1 477.471 83.1333 477.337 84C476.937 86.0667 476.937 87.4333 477.337 88.1C477.737 88.7 478.271 89 478.938 89C480.204 89 481.538 88.3 482.938 86.9C484.337 85.5 485.671 83.8667 486.938 82C488.204 80.0667 489.337 78.1333 490.337 76.2C491.337 74.2667 492.104 72.7667 492.638 71.7C493.038 70.8333 493.471 70.5333 493.938 70.8C494.471 71 494.504 71.6 494.038 72.6Z" fill="white"/>
<path d="M529.034 72.6C528.3 74.1333 527.367 75.9333 526.234 78C525.167 80.0667 523.967 82.0667 522.634 84C521.3 85.9333 519.867 87.6 518.334 89C516.867 90.3333 515.4 91.0667 513.934 91.2C513.134 91.2667 512.267 91.1333 511.334 90.8C510.4 90.4 509.634 89.7333 509.034 88.8C508.434 87.8 508.067 86.4667 507.934 84.8C507.867 83.0667 508.2 80.9 508.934 78.3C508.134 79.6333 507.1 81.2 505.834 83C504.567 84.7333 503.2 86.3 501.734 87.7C499.8 89.5667 498 90.6667 496.334 91C494.734 91.3333 493.367 91.1 492.234 90.3C491.1 89.4333 490.267 88.1 489.734 86.3C489.267 84.5 489.2 82.4 489.534 80C489.867 77.5333 490.667 74.8667 491.934 72C493.267 69.0667 495.2 66.1 497.734 63.1C499.2 61.3 500.967 59.7667 503.034 58.5C505.167 57.2333 507.3 56.3333 509.434 55.8C511.634 55.2667 513.734 55.2 515.734 55.6C517.8 56 519.534 56.9667 520.934 58.5C521.667 59.2333 521.867 59.9333 521.534 60.6C521.267 61.2667 520.7 61.5333 519.834 61.4C519.3 59.5333 518.2 58.4 516.534 58C514.934 57.6 513.2 57.9 511.334 58.9C509.067 60.1667 506.734 62.1333 504.334 64.8C501.934 67.4 499.834 70.2 498.034 73.2C497.834 73.5333 497.534 74.0667 497.134 74.8C496.734 75.5333 496.3 76.4 495.834 77.4C495.434 78.3333 495.034 79.3333 494.634 80.4C494.3 81.4 494.067 82.3667 493.934 83.3C493.667 85.0333 493.767 86.3 494.234 87.1C494.767 87.9 495.467 88.3 496.334 88.3C497.267 88.3 498.334 87.9333 499.534 87.2C500.734 86.4 501.934 85.3 503.134 83.9C504.867 81.7667 506.434 79.5333 507.834 77.2C509.3 74.8 510.7 72.3667 512.034 69.9C513.167 67.7667 514.167 66.1333 515.034 65C515.967 63.8667 517.234 63.3667 518.834 63.5C519.5 63.5667 520.167 63.7 520.834 63.9C521.567 64.0333 522.3 64.0333 523.034 63.9C522.5 64.4333 521.767 65.4333 520.834 66.9C519.967 68.3 519.034 69.9333 518.034 71.8C517.1 73.6 516.234 75.4667 515.434 77.4C514.634 79.3333 514.067 81.0667 513.734 82.6C512.934 86.6 513.267 88.6 514.734 88.6C515.8 88.6667 516.967 88.0333 518.234 86.7C519.5 85.3667 520.734 83.7667 521.934 81.9C523.2 80.0333 524.334 78.1667 525.334 76.3C526.334 74.3667 527.1 72.8667 527.634 71.8C528.1 70.9333 528.567 70.6 529.034 70.8C529.5 71 529.5 71.6 529.034 72.6Z" fill="white"/>
<path d="M112.847 92.2C115.914 92.2 118.747 91.7333 121.347 90.8C123.28 90.0564 125.066 88.9073 126.705 87.3528C128.07 84.4891 129.48 81.5381 130.933 78.5C131.773 76.7958 132.612 75.0871 133.452 73.3737C133.195 73.8589 132.927 74.3677 132.647 74.9C132.047 76.1 131.414 77.3 130.747 78.5C130.08 79.7 129.414 80.8667 128.747 82C128.147 83.0667 127.547 83.9333 126.947 84.6C125.614 86.2 123.914 87.5333 121.847 88.6C119.78 89.6667 117.78 90.1 115.847 89.9C117.114 89.7 118.247 89.1667 119.247 88.3C120.314 87.3667 121.214 86.3 121.947 85.1C122.68 83.9 123.247 82.6667 123.647 81.4C124.047 80.1333 124.28 79 124.347 78C124.48 75.8 124.114 73.7667 123.247 71.9C122.421 70.1215 121.626 68.3128 120.86 66.4738C120.849 66.499 120.837 66.5249 120.824 66.5515C120.816 66.5674 120.808 66.5836 120.8 66.6C119.782 67.9766 118.762 69.2895 117.737 70.5385C117.739 70.5538 117.742 70.5691 117.744 70.5845C117.852 71.3823 117.953 72.1875 118.047 73C118.247 74.7333 118.314 76.4 118.247 78C118.114 80.1333 117.747 81.9667 117.147 83.5C116.614 84.9667 115.947 86.1667 115.147 87.1C114.48 87.8333 113.747 88.4667 112.947 89C112.214 89.4667 111.28 89.7 110.147 89.7C108.747 89.7 107.68 89.2 106.947 88.2C106.28 87.2 106.114 86.0333 106.447 84.7C106.514 84.4333 106.647 84.0667 106.847 83.6C107.047 83.1333 107.28 82.7333 107.547 82.4C107.88 82 108.214 81.7 108.547 81.5C108.947 81.3 109.314 81.3 109.647 81.5C109.78 80.9667 109.814 80.4667 109.747 80C109.698 79.6128 109.633 79.3134 109.549 79.1019C108.702 79.8435 107.852 80.5428 107 81.2C105.575 82.3872 103.992 83.5744 102.25 84.7617C102.323 86.0056 102.622 87.1851 103.147 88.3C103.48 89.0333 103.98 89.6667 104.647 90.2C105.38 90.6667 106.18 91.0333 107.047 91.3C107.914 91.6333 108.847 91.8667 109.847 92C110.847 92.1333 111.847 92.2 112.847 92.2Z" fill="white"/>
<path d="M102.247 84.7L102.25 84.7617C103.992 83.5744 105.575 82.3872 107 81.2C107.852 80.5428 108.702 79.8435 109.549 79.1019C109.517 79.0221 109.483 78.9548 109.447 78.9C109.289 78.5452 109.085 78.2486 108.834 78.0104C107.939 78.8038 107.061 79.5337 106.2 80.2C104.897 81.1769 103.562 82.0881 102.194 82.9336C102.165 83.499 102.182 84.0878 102.247 84.7Z" fill="white"/>
<path fill-rule="evenodd" clip-rule="evenodd" d="M101.6 85.2C101.819 85.0539 102.036 84.9078 102.25 84.7617L102.247 84.7C102.182 84.0878 102.165 83.499 102.194 82.9336C103.562 82.0881 104.897 81.1769 106.2 80.2C107.061 79.5337 107.939 78.8038 108.834 78.0104C108.66 77.8458 108.465 77.709 108.247 77.6C107.98 77.4667 107.747 77.4333 107.547 77.5L105.847 77.3C105.047 77.3 104.347 77.6667 103.747 78.4C103.147 79.1333 102.714 80.0667 102.447 81.2C102.309 81.7512 102.225 82.329 102.194 82.9336C100.481 83.9921 98.7161 84.9476 96.9 85.8C93.7 87.3333 91.1 88.1 89.1 88.1C87.1 88.1 85.5667 87 84.5 84.8C83.5 82.6 83 78.7333 83 73.2C83 69.9333 83.3333 65.4 84 59.6C86.2667 58.8 88.6333 57.7667 91.1 56.5C93.5667 55.1667 95.5333 53.9667 97 52.9C98.4667 51.8333 99.2 51.1333 99.2 50.8C99.2 50.4 99 50.2 98.6 50.2C98.4 50.2 97.6 50.7 96.2 51.7C94.8 52.6333 92.9667 53.7333 90.7 55C88.4333 56.2667 86.2667 57.2 84.2 57.8C85.3333 49.0667 87.0333 39.8333 89.3 30.1C91.5667 20.3 93.6667 12.9333 95.6 7.99999C95.6667 7.86666 95.9 7.36666 96.3 6.49999C96.7 5.56666 97.0333 4.69999 97.3 3.89999C97.6333 3.03332 97.8 2.33332 97.8 1.79999C97.8 1.13332 97.5333 0.799988 97 0.799988C96.6 0.799988 95.8 1.09999 94.6 1.69999C93.4667 2.23332 92.8 2.53332 92.6 2.59999C92.2 2.73332 91.5333 2.99999 90.6 3.39999C89.6667 3.73332 89.1 3.96666 88.9 4.09999C88.7 4.16666 88.2333 4.39999 87.5 4.79999C86.8333 5.19999 86.3333 5.56666 86 5.89999C85.6667 6.16666 85.1333 6.63332 84.4 7.29999C83.6667 7.96666 82.9333 8.73333 82.2 9.59999C81.5333 10.4 80.6667 11.4 79.6 12.6C63.8 31.0667 50.4333 45.8333 39.5 56.9C28.5667 67.9 18.0667 77.8 8 86.6C5.73333 88.6 3.6 89.9333 1.6 90.6C0.533333 90.8667 0 91.2 0 91.6C0 92.0667 0.4 92.3 1.2 92.3C1.8 92.3 2.43333 92.2667 3.1 92.2C3.7 92.1333 4.33333 92.0333 5 91.9C5.73333 91.7667 6.26667 91.6667 6.6 91.6C10.4 91.2 13.2667 90.2667 15.2 88.8C20.4 84.4667 29.4 75 42.2 60.4C42.6 60.2667 43.2667 60.2 44.2 60.2C45.3333 60.2 48.1 60.5667 52.5 61.3C56.9 62.0333 60.4667 62.4 63.2 62.4C65.2 62.4 69.2 62.0667 75.2 61.4C74.4 67 74 71.7333 74 75.6C74 81.4 74.6333 85.5667 75.9 88.1C77.1667 90.5667 79.7333 91.8 83.6 91.8C86.4667 91.8 89.7 91.0333 93.3 89.5C96.9 87.9 99.6667 86.4667 101.6 85.2ZM117.547 54.7L116.947 59C116.747 60.1333 116.714 61.4667 116.847 63C116.98 64.5333 117.147 66.1667 117.347 67.9C117.404 68.2558 117.459 68.6131 117.513 68.9719C117.591 69.4909 117.666 70.0131 117.737 70.5385C117.68 70.6084 117.623 70.6781 117.565 70.7476L117.744 70.5845L117.737 70.5385C118.762 69.2895 119.782 67.9766 120.8 66.6C120.808 66.5836 120.816 66.5674 120.824 66.5515C120.837 66.5249 120.849 66.499 120.86 66.4738C120.954 66.2693 121 66.1114 121 66C121 65.7333 120.867 65.6 120.6 65.6C120.574 65.6 120.549 65.6018 120.523 65.6056C120.151 64.53 119.826 63.1282 119.547 61.4C119.214 59.3333 119.18 57.4333 119.447 55.7C119.514 54.9667 119.714 54.3 120.047 53.7C120.38 53.0333 120.78 52.5 121.247 52.1C121.714 51.7 122.247 51.4667 122.847 51.4C123.514 51.3333 124.214 51.5 124.947 51.9C125.48 52.2333 126.047 52.5333 126.647 52.8C127.247 53 127.88 53.0333 128.547 52.9C129.614 52.7 130.347 52.3 130.747 51.7C131.214 51.0333 131.38 50.4 131.247 49.8C131.18 49.1333 130.847 48.5333 130.247 48C129.714 47.4667 129.014 47.1667 128.147 47.1C127.147 47.0333 126.014 47.2333 124.747 47.7C123.547 48.1667 122.314 49.0333 121.047 50.3C119.847 51.5 118.68 52.9667 117.547 54.7ZM48.8 56.8H45.4L82 13.4C83.7333 11.2667 84.8333 10.2 85.3 10.2C85.5 10.2 85.6 10.4 85.6 10.8C85.6 10.8667 85.3333 11.9333 84.8 14C84.2667 16 83.6 18.7 82.8 22.1C82 25.5 81.1333 29.2 80.2 33.2C79.3333 37.1333 78.4667 41.4667 77.6 46.2C76.7333 50.8667 76.0667 55.1333 75.6 59C74.5333 59.1333 73.2 59.2 71.6 59.2C69.3333 59.2 65.6333 58.8 60.5 58C55.3667 57.2 51.4667 56.8 48.8 56.8ZM135.947 72.1C135.014 74.1667 133.947 76.4333 132.747 78.9C131.547 81.3667 130.08 83.6 128.347 85.6C127.817 86.2325 127.27 86.8167 126.705 87.3528C128.07 84.4891 129.48 81.5381 130.933 78.5C131.773 76.7958 132.612 75.0871 133.452 73.3737C133.806 72.7043 134.138 72.0798 134.447 71.5C134.714 70.9667 135.08 70.8 135.547 71C136.08 71.2 136.214 71.5667 135.947 72.1Z" fill="white"/>
<path fill-rule="evenodd" clip-rule="evenodd" d="M440.478 77.9C441.478 75.9667 442.345 74.2333 443.078 72.7C443.611 71.7 443.645 71.0667 443.178 70.8C442.778 70.5333 442.345 70.8333 441.878 71.7C441.684 72.0874 441.46 72.5321 441.205 73.0339L439.255 78C438.769 79.2146 438.421 80.5121 438.212 81.8927C439.017 80.595 439.773 79.2641 440.478 77.9Z" fill="white"/>
<path fill-rule="evenodd" clip-rule="evenodd" d="M433.178 88.3C434.645 86.9 435.978 85.3 437.178 83.5C437.531 82.97 437.876 82.4342 438.212 81.8927C438.421 80.5121 438.769 79.2146 439.255 78L441.205 73.0339L441.18 73.0828C440.737 73.9526 440.203 74.9917 439.578 76.2C438.645 78.0667 437.578 79.9 436.378 81.7C435.245 83.5 434.045 85.0667 432.778 86.4C431.578 87.7333 430.478 88.4 429.478 88.4C428.478 88.3333 427.878 87.8333 427.678 86.9C427.545 85.9667 427.645 84.8 427.978 83.4C428.311 81.9333 428.811 80.3333 429.478 78.6C430.211 76.8667 430.945 75.2333 431.678 73.7C432.478 72.1 433.178 70.6667 433.778 69.4C434.445 68.1333 434.911 67.2333 435.178 66.7C435.445 66.1 435.745 65.4333 436.078 64.7C436.411 63.9 436.678 63.1667 436.878 62.5C437.145 61.7667 437.311 61.1 437.378 60.5C437.511 59.8333 437.478 59.3333 437.278 59C434.811 59.2667 432.345 59.4333 429.878 59.5C428.432 59.5402 426.068 59.0723 424.007 58.6648C422.647 58.3958 421.42 58.153 420.678 58.1C419.811 61.3 418.711 64.5333 417.378 67.8C417.343 67.8817 417.309 67.968 417.275 68.0585M417.275 68.0585C417.31 67.9724 417.344 67.8862 417.378 67.8C417.837 66.7064 417.089 67.2924 417.684 67.0414C418.213 66.818 419.717 65.4534 420 64.7L421.578 61.8C424.378 61.8667 426.545 62.2667 428.078 63C429.611 63.6667 430.011 64.8333 429.278 66.5C429.011 67.1 428.611 67.8667 428.078 68.8C427.545 69.7333 426.945 70.7333 426.278 71.8C425.678 72.8667 425.078 73.9667 424.478 75.1C423.945 76.2333 423.478 77.3 423.078 78.3C422.078 80.9 421.645 83.0667 421.778 84.8C421.911 86.4667 422.345 87.8 423.078 88.8C423.811 89.8 424.678 90.4667 425.678 90.8C426.745 91.0667 427.711 91.1 428.578 90.9C430.178 90.5 431.711 89.6333 433.178 88.3" fill="white"/>
<path fill-rule="evenodd" clip-rule="evenodd" d="M225.632 53C225.899 53 226.065 53.1333 226.132 53.4C226.265 53.6 226.299 53.8333 226.232 54.1C226.232 54.3667 226.165 54.6333 226.032 54.9C225.899 55.1 225.699 55.2 225.432 55.2H219.632H212.632C211.565 57.6667 210.565 60.0667 209.632 62.4C208.765 64.7333 207.965 66.7667 207.232 68.5C206.965 69.1667 205.799 73.2667 205.532 74.4C205.332 75.5333 205.099 76.6667 204.832 77.8C204.565 79.0667 204.299 80.4333 204.032 81.9C203.632 83.5667 203.599 84.9 203.932 85.9C204.265 86.8333 204.765 87.5 205.432 87.9C206.099 88.3 206.899 88.4333 207.832 88.3C208.765 88.1 209.632 87.7 210.432 87.1C212.765 85.3667 214.765 83.1 216.432 80.3C218.165 77.5 219.699 74.7333 221.032 72C221.432 71.0667 221.865 70.7 222.332 70.9C222.865 71.0333 222.865 71.6 222.332 72.6C221.199 74.9333 220.232 76.8667 219.432 78.4C218.632 79.9333 217.865 81.3 217.132 82.5C216.465 83.6333 215.765 84.6333 215.032 85.5C214.299 86.3667 213.465 87.2667 212.532 88.2C211.199 89.5333 209.632 90.4 207.832 90.8C206.099 91.2 204.499 91.1333 203.032 90.6C201.565 90 200.365 88.9 199.432 87.3C198.565 85.6333 198.332 83.4333 198.732 80.7C198.932 79.0333 199.299 77.1333 199.832 75C200.432 72.8 201.065 70.5667 201.732 68.3C202.465 66.0333 203.232 63.7667 204.032 61.5C204.899 59.2333 205.732 57.1333 206.532 55.2H201.332C201.065 55.2 200.865 55.1 200.732 54.9C200.599 54.6333 200.532 54.3667 200.532 54.1C200.599 53.8333 200.699 53.6 200.832 53.4C201.032 53.1333 201.265 53 201.532 53H207.532C208.665 50.4667 209.832 48 211.032 45.6C212.299 43.2 213.565 40.9333 214.832 38.8C216.565 35.8 218.399 33.6667 220.332 32.4C222.332 31.0667 223.999 30.6333 225.332 31.1C224.942 31.2169 223.961 32.9393 222.906 34.7898C222.156 36.1054 221.369 37.4858 220.732 38.4C219.532 40.1333 218.365 42.3 217.232 44.9C216.099 47.4333 214.899 50.1333 213.632 53H220.832H225.632ZM221.111 52.4656C221.018 52.644 220.925 52.8221 220.832 53C220.932 52.822 221.024 52.6439 221.111 52.4656ZM225.481 31.1493C225.442 31.1002 225.393 31.0818 225.332 31.1C225.382 31.1151 225.432 31.1315 225.481 31.1493ZM225.331 35.7244L225.332 35.6918L225.332 36C225.327 35.9292 225.326 35.8359 225.331 35.7244Z" fill="white"/>
<path d="M291.627 53.1804C290.435 52.052 289.02 51.1568 287.463 50.5461C285.905 49.9353 284.236 49.621 282.55 49.621C280.864 49.621 279.195 49.9353 277.638 50.5461C276.08 51.1568 274.665 52.052 273.473 53.1804L271 55.5213L268.527 53.1804C266.119 50.9021 262.855 49.6222 259.45 49.6222C256.046 49.6222 252.781 50.9021 250.373 53.1804C247.966 55.4587 246.614 58.5488 246.614 61.7708C246.614 64.9929 247.966 68.0829 250.373 70.3613L271 89.8829L291.627 70.3613C292.819 69.2333 293.765 67.8941 294.41 66.4202C295.056 64.9462 295.388 63.3663 295.388 61.7708C295.388 60.1753 295.056 58.5955 294.41 57.1215C293.765 55.6475 292.819 54.3083 291.627 53.1804Z" fill="white" stroke="white" stroke-width="4" stroke-linecap="round" stroke-linejoin="round"/>
</svg>
